<svg width="40" height="40" fill="none" xmlns="http://www.w3.org/2000/svg"><path fill-rule="evenodd" clip-rule="evenodd" d="M21.715 5.518a1.879 1.879 0 00-3.575-.368l-.005-.003a6.082 6.082 0 01-3.17 3.117 6.08 6.08 0 01-4.273.2 1.879 1.879 0 00-2.39 2.716 6.075 6.075 0 01-.163 4.083 6.076 6.076 0 01-2.627 3.024 1.878 1.878 0 00-.364 3.573l-.002.006a6.082 6.082 0 013.117 3.17 6.08 6.08 0 01.195 4.284 1.878 1.878 0 002.73 2.374 6.077 6.077 0 014.073.166 6.076 6.076 0 013.029 2.635 1.879 1.879 0 003.572.357l.006.002a6.082 6.082 0 013.17-3.117 6.079 6.079 0 014.274-.198 1.88 1.88 0 002.383-2.726 6.077 6.077 0 01.166-4.074 6.076 6.076 0 012.632-3.027 1.879 1.879 0 00.358-3.572l.002-.006a6.082 6.082 0 01-3.117-3.17 6.08 6.08 0 01-.198-4.276 1.879 1.879 0 00-2.729-2.38c-1.292.4-2.72.374-4.07-.167a6.076 6.076 0 01-3.023-2.623zm6.658 17.824a9.827 9.827 0 00-.698 4.148 9.83 9.83 0 00-4.115.793 9.828 9.828 0 00-3.428 2.442 9.828 9.828 0 00-3.475-2.352 9.828 9.828 0 00-4.147-.697 9.829 9.829 0 00-.793-4.117 9.827 9.827 0 00-2.44-3.425 9.827 9.827 0 002.35-3.473 9.827 9.827 0 00.697-4.148 9.83 9.83 0 004.118-.794 9.829 9.829 0 003.426-2.44 9.829 9.829 0 003.472 2.35 9.828 9.828 0 004.147.697 9.829 9.829 0 00.794 4.116 9.829 9.829 0 002.441 3.428 9.826 9.826 0 00-2.349 3.472zm-11.435-2.339a1.405 1.405 0 00-2.276 1.646 6.62 6.62 0 005.374 2.735 6.62 6.62 0 005.374-2.735 1.404 1.404 0 00-2.275-1.646 3.81 3.81 0 01-3.1 1.572 3.811 3.811 0 01-3.097-1.572z" fill="url(#prefix__paint0_linear_3_177)"/><defs><linearGradient id="prefix__paint0_linear_3_177" x1="12.667" y1="2.666" x2="24.667" y2="31.999" gradientUnits="userSpaceOnUse"><stop stop-color="#FFAE31"/><stop offset=".601" stop-color="#AB5EBD"/><stop offset="1" stop-color="#4D40B5"/></linearGradient></defs></svg>
