<svg viewBox="0 0 24 24" fill="none" xmlns="http://www.w3.org/2000/svg">
<g clip-path="url(#clip0_3_177)">
<path fill-rule="evenodd" clip-rule="evenodd" d="M13.2863 1.13873C13.2284 0.842323 13.0768 0.572364 12.8538 0.368669C12.6308 0.164974 12.3483 0.0383272 12.0478 0.00740526C11.7474 -0.0235167 11.445 0.0429235 11.1852 0.196927C10.9254 0.350931 10.722 0.584346 10.6049 0.862749L10.6014 0.860593C10.1321 1.91205 9.28256 2.74713 8.22316 3.19828C7.20851 3.63458 6.06997 3.68775 5.01907 3.34791C4.74205 3.21462 4.42903 3.17559 4.12776 3.23679C3.82648 3.29798 3.5535 3.45604 3.35043 3.68685C3.14737 3.91766 3.02538 4.20855 3.00307 4.51516C2.98075 4.82176 3.05934 5.12725 3.22685 5.38503C3.52958 6.35701 3.51146 7.43077 3.10438 8.44717C2.72281 9.40432 2.02811 10.2039 1.13362 10.7154C0.838014 10.7743 0.569084 10.9264 0.36634 11.1495C0.163597 11.3725 0.0377305 11.6547 0.0072321 11.9546C-0.0232663 12.2544 0.0432115 12.5562 0.196899 12.8154C0.350586 13.0747 0.583381 13.2779 0.861081 13.3951L0.859356 13.3994C1.91084 13.8687 2.74594 14.7182 3.19709 15.7776C3.63442 16.795 3.68654 17.9368 3.34371 18.9898C3.21191 19.2676 3.17458 19.5808 3.23742 19.8818C3.30027 20.1827 3.45984 20.4549 3.69179 20.6567C3.92374 20.8585 4.21534 20.9788 4.5221 20.9994C4.82886 21.0201 5.13394 20.9397 5.3908 20.7708C6.39306 20.4593 7.47212 20.5033 8.44568 20.8954C9.40492 21.2777 10.2059 21.9743 10.7174 22.8713C10.7773 23.1663 10.9301 23.4344 11.1533 23.6362C11.3766 23.8381 11.6587 23.9631 11.9582 23.993C12.2578 24.0229 12.559 23.9561 12.8178 23.8024C13.0766 23.6486 13.2793 23.416 13.3963 23.1387L13.4006 23.1404C13.8698 22.089 14.7192 21.2539 15.7784 20.8027C16.7936 20.3664 17.9326 20.3135 18.9838 20.6539C19.2615 20.7872 19.5751 20.8259 19.8768 20.764C20.1785 20.7021 20.4517 20.5431 20.6544 20.3112C20.8571 20.0794 20.9782 19.7875 20.9993 19.4802C21.0203 19.1729 20.9401 18.8672 20.7709 18.6099C20.4594 17.6073 20.5035 16.528 20.8959 15.5542C21.2779 14.5958 21.9737 13.7954 22.8697 13.2838C23.1649 13.2243 23.4333 13.0717 23.6355 12.8484C23.8376 12.6252 23.9629 12.343 23.993 12.0434C24.023 11.7437 23.9562 11.4423 23.8024 11.1834C23.6486 10.9244 23.4159 10.7216 23.1384 10.6046L23.1401 10.6007C22.0885 10.1316 21.2533 9.28222 20.8019 8.22294C20.3653 7.20725 20.3126 6.06755 20.6536 5.0159C20.7868 4.73805 20.8253 4.42417 20.7631 4.12236C20.7009 3.82054 20.5415 3.54745 20.3093 3.34491C20.077 3.14237 19.7848 3.02156 19.4773 3.001C19.1698 2.98043 18.8641 3.06124 18.6069 3.23105C17.6375 3.53075 16.5672 3.51178 15.5538 3.10599C14.5975 2.72496 13.7985 2.03142 13.2867 1.1383L13.2863 1.13873ZM18.28 14.5068C17.8831 15.4937 17.7045 16.5548 17.7565 17.6172C16.6968 17.5913 15.6439 17.7943 14.6697 18.2123C13.6905 18.63 12.8134 19.2548 12.0987 20.0437C11.3672 19.2752 10.4785 18.6736 9.49316 18.28C8.50621 17.8833 7.44508 17.7048 6.38264 17.7569C6.40865 16.6969 6.20567 15.6438 5.78753 14.6694C5.37002 13.6909 4.74567 12.8144 3.95736 12.1001C4.72537 11.3688 5.32654 10.4804 5.71983 9.49549C6.11665 8.50843 6.2951 7.44717 6.24292 6.38461C7.30342 6.41062 8.35705 6.20749 9.33187 5.78909C10.3101 5.37179 11.1865 4.74776 11.9008 3.95982C12.632 4.72761 13.5203 5.32861 14.505 5.72182C15.4919 6.11855 16.5531 6.297 17.6155 6.2449C17.5898 7.30466 17.7929 8.3575 18.211 9.33162C18.6285 10.3106 19.253 11.1875 20.0416 11.9022C19.2738 12.6335 18.6732 13.5219 18.28 14.5068ZM9.70317 12.7525C9.62213 12.6405 9.51981 12.5455 9.40205 12.4729C9.28429 12.4004 9.1534 12.3518 9.01685 12.3298C8.8803 12.3079 8.74077 12.3131 8.60621 12.345C8.47166 12.377 8.34472 12.4352 8.23265 12.5162C8.12058 12.5973 8.02556 12.6996 7.95303 12.8173C7.8805 12.9351 7.83188 13.066 7.80994 13.2025C7.78799 13.3391 7.79316 13.4786 7.82514 13.6132C7.85712 13.7477 7.91529 13.8746 7.99633 13.9867C8.45772 14.6234 9.06376 15.1414 9.76454 15.4981C10.4653 15.8547 11.2408 16.0398 12.0271 16.0381C13.6865 16.0381 15.1592 15.2295 16.0579 13.9867C16.2215 13.7604 16.2886 13.4783 16.2443 13.2025C16.2 12.9268 16.0479 12.6799 15.8216 12.5162C15.5952 12.3526 15.3131 12.2855 15.0374 12.3298C14.7616 12.3742 14.5147 12.5262 14.351 12.7525C14.0848 13.1193 13.7352 13.4174 13.3311 13.6224C12.9269 13.8274 12.4798 13.9334 12.0267 13.9315C11.5737 13.9332 11.1267 13.8272 10.7227 13.6222C10.3188 13.4172 9.96929 13.1192 9.70317 12.7525Z" fill="url(#paint0_linear_3_177)"/>
</g>
<defs>
<linearGradient id="paint0_linear_3_177" x1="6.49994" y1="-1.00015" x2="15.4999" y2="20.9995" gradientUnits="userSpaceOnUse">
<stop stop-color="#FFAE31"/>
<stop offset="0.601" stop-color="#AB5EBD"/>
<stop offset="1" stop-color="#4D40B5"/>
</linearGradient>
<clipPath id="clip0_3_177">
<rect fill="white"/>
</clipPath>
</defs>
</svg>
