<svg xmlns="http://www.w3.org/2000/svg" width="24" height="24" fill="none"><path fill="url(#prefix__a)" fill-rule="evenodd" d="M31.157 2.643a3.267 3.267 0 00-6.218-.64l-.008-.005a10.578 10.578 0 01-5.515 5.421 10.573 10.573 0 01-7.43.347A3.267 3.267 0 007.83 12.49c.702 2.254.66 4.744-.284 7.101a10.567 10.567 0 01-4.57 5.26 3.267 3.267 0 00-.632 6.214l-.004.01a10.578 10.578 0 015.421 5.515 10.574 10.574 0 01.34 7.449 3.267 3.267 0 004.747 4.13 10.568 10.568 0 017.084.289A10.568 10.568 0 0125.2 53.04a3.267 3.267 0 006.212.62l.01.004a10.578 10.578 0 015.514-5.421 10.573 10.573 0 017.433-.345 3.267 3.267 0 004.144-4.74 10.569 10.569 0 01.29-7.086 10.568 10.568 0 014.577-5.265 3.267 3.267 0 00.623-6.213l.004-.009a10.578 10.578 0 01-5.422-5.514 10.574 10.574 0 01-.344-7.437 3.267 3.267 0 00-4.746-4.139c-2.248.695-4.73.651-7.08-.29a10.567 10.567 0 01-5.257-4.563zm11.58 31a17.093 17.093 0 00-1.214 7.213 17.094 17.094 0 00-7.158 1.38 17.094 17.094 0 00-5.962 4.247 17.095 17.095 0 00-6.042-4.09 17.093 17.093 0 00-7.213-1.213 17.094 17.094 0 00-1.38-7.16 17.094 17.094 0 00-4.244-5.958 17.094 17.094 0 004.087-6.04 17.093 17.093 0 001.213-7.214 17.098 17.098 0 007.163-1.381 17.093 17.093 0 005.957-4.242 17.094 17.094 0 006.039 4.086 17.094 17.094 0 007.213 1.213 17.094 17.094 0 001.381 7.158 17.092 17.092 0 004.245 5.961 17.093 17.093 0 00-4.086 6.04zm-19.889-4.068a2.442 2.442 0 10-3.958 2.862 11.512 11.512 0 009.347 4.757c3.848 0 7.263-1.875 9.347-4.757a2.442 2.442 0 00-3.958-2.862 6.627 6.627 0 01-5.39 2.734 6.627 6.627 0 01-5.388-2.734z" clip-rule="evenodd"/><path fill="url(#prefix__b)" fill-rule="evenodd" d="M28.822.238a3.265 3.265 0 011.991 2.406 10.568 10.568 0 005.257 4.563 10.57 10.57 0 007.079.291 3.267 3.267 0 014.75 4.136 10.575 10.575 0 00.343 7.44 10.58 10.58 0 005.422 5.516l-.004.008a3.268 3.268 0 01-.62 6.213 10.568 10.568 0 00-4.581 5.267 10.569 10.569 0 00-.29 7.082 3.267 3.267 0 01-4.14 4.745 10.574 10.574 0 00-7.437.344 10.579 10.579 0 00-5.515 5.422l-.01-.004a3.267 3.267 0 01-6.212-.617 10.568 10.568 0 00-5.27-4.585 10.57 10.57 0 00-7.088-.289 3.267 3.267 0 01-4.742-4.136c.764-2.362.71-4.989-.342-7.445a10.579 10.579 0 00-5.421-5.515l.005-.01a3.267 3.267 0 01.634-6.216 10.568 10.568 0 004.568-5.26 10.57 10.57 0 00.283-7.104 3.267 3.267 0 014.164-4.72c2.357.756 4.976.698 7.424-.35A10.579 10.579 0 0024.585 2l.01.004A3.267 3.267 0 0128.822.238zM41.178 40.86a17.096 17.096 0 011.214-7.213 17.095 17.095 0 014.087-6.04 17.095 17.095 0 01-4.246-5.962c-1-2.336-1.44-4.772-1.381-7.159a17.096 17.096 0 01-7.214-1.213 17.096 17.096 0 01-6.04-4.087 17.094 17.094 0 01-5.958 4.243c-2.337 1-4.775 1.44-7.163 1.38a17.096 17.096 0 01-1.213 7.216 17.095 17.095 0 01-4.087 6.04 17.096 17.096 0 014.243 5.96c1 2.336 1.44 4.773 1.381 7.16a17.096 17.096 0 017.214 1.214 17.095 17.095 0 016.043 4.09 17.094 17.094 0 015.962-4.247c2.336-1 4.772-1.44 7.158-1.382z" clip-rule="evenodd"/><path stroke="#7A3FB2" stroke-linecap="round" stroke-width="4.885" d="M35.26 31.01a9.07 9.07 0 01-7.368 3.745 9.07 9.07 0 01-7.369-3.746"/><defs><linearGradient id="prefix__a" x1="15.42" x2="36.291" y1="-2.317" y2="48.699" gradientUnits="userSpaceOnUse"><stop stop-color="#FFAE31"/><stop offset=".601" stop-color="#AB5EBD"/><stop offset="1" stop-color="#4D40B5"/></linearGradient><linearGradient id="prefix__b" x1="17.254" x2="37.918" y1="1.951" y2="52.181" gradientUnits="userSpaceOnUse"><stop stop-color="#EF950E"/><stop offset=".542" stop-color="#AA50BF"/><stop offset=".74" stop-color="#743DB0"/><stop offset=".969" stop-color="#4F41BB"/></linearGradient></defs></svg>
