<svg width="40" height="40" fill="none" xmlns="http://www.w3.org/2000/svg"><g clip-path="url(#prefix__clip0_3_177)"><path fill-rule="evenodd" clip-rule="evenodd" d="M22.144 1.898a2.348 2.348 0 00-4.47-.46l-.005-.004a7.603 7.603 0 01-3.964 3.896 7.6 7.6 0 01-5.34.25 2.348 2.348 0 00-2.987 3.395 7.594 7.594 0 01-.204 5.104 7.594 7.594 0 01-3.285 3.78 2.348 2.348 0 00-.454 4.466l-.003.007a7.603 7.603 0 013.896 3.964 7.6 7.6 0 01.245 5.354 2.348 2.348 0 003.412 2.968 7.595 7.595 0 015.091.208 7.596 7.596 0 013.786 3.293 2.348 2.348 0 004.465.445l.007.003a7.602 7.602 0 013.963-3.896 7.599 7.599 0 015.343-.248 2.348 2.348 0 002.978-3.407 7.597 7.597 0 01.209-5.092 7.596 7.596 0 013.29-3.784 2.348 2.348 0 00.447-4.466l.003-.006a7.603 7.603 0 01-3.897-3.963 7.6 7.6 0 01-.247-5.345 2.348 2.348 0 00-3.412-2.975c-1.615.5-3.4.468-5.088-.208a7.595 7.595 0 01-3.778-3.28h-.001zm8.323 22.28a12.285 12.285 0 00-.873 5.184 12.287 12.287 0 00-5.145.992 12.286 12.286 0 00-4.285 3.052 12.286 12.286 0 00-4.342-2.94 12.284 12.284 0 00-5.184-.871 12.284 12.284 0 00-.992-5.146 12.286 12.286 0 00-3.05-4.282 12.285 12.285 0 002.937-4.341c.661-1.645.959-3.414.872-5.185a12.288 12.288 0 005.148-.993A12.285 12.285 0 0019.835 6.6a12.285 12.285 0 004.34 2.936c1.645.662 3.413.959 5.184.872a12.286 12.286 0 00.993 5.145 12.285 12.285 0 003.05 4.284 12.286 12.286 0 00-2.935 4.341zm-14.295-2.924a1.756 1.756 0 00-2.845 2.057 8.274 8.274 0 006.718 3.42 8.274 8.274 0 006.718-3.42 1.755 1.755 0 10-2.845-2.057 4.761 4.761 0 01-3.873 1.965 4.763 4.763 0 01-3.873-1.965z" fill="url(#prefix__paint0_linear_3_177)"/></g><defs><linearGradient id="prefix__paint0_linear_3_177" x1="10.833" y1="-1.667" x2="25.833" y2="34.999" gradientUnits="userSpaceOnUse"><stop stop-color="#FFAE31"/><stop offset=".601" stop-color="#AB5EBD"/><stop offset="1" stop-color="#4D40B5"/></linearGradient><clipPath id="prefix__clip0_3_177"><path fill="transparent" d="M0 0h40v40H0z"/></clipPath></defs></svg>
