<svg width="24" height="24" fill="none" xmlns="http://www.w3.org/2000/svg"><g clip-path="url(#prefix__clip0_3_177)"><path fill-rule="evenodd" clip-rule="evenodd" d="M13.286 1.139a1.409 1.409 0 00-2.681-.276L10.6.86a4.562 4.562 0 01-2.378 2.337 4.56 4.56 0 01-3.204.15 1.409 1.409 0 00-1.792 2.037 4.556 4.556 0 01-.123 3.062 4.557 4.557 0 01-1.97 2.268 1.409 1.409 0 00-.273 2.68L.86 13.4a4.561 4.561 0 012.338 2.379 4.56 4.56 0 01.147 3.212 1.409 1.409 0 002.047 1.78 4.557 4.557 0 013.055.125 4.557 4.557 0 012.271 1.976 1.41 1.41 0 002.68.268l.004.001a4.561 4.561 0 012.377-2.337 4.56 4.56 0 013.206-.15 1.409 1.409 0 001.787-2.043 4.557 4.557 0 01.125-3.056 4.557 4.557 0 011.974-2.27 1.409 1.409 0 00.268-2.68l.002-.003a4.562 4.562 0 01-2.338-2.378 4.56 4.56 0 01-.148-3.207 1.41 1.41 0 00-2.047-1.785c-.97.3-2.04.28-3.053-.125a4.557 4.557 0 01-2.267-1.968zm4.994 13.368a7.37 7.37 0 00-.524 3.11 7.372 7.372 0 00-3.086.595 7.372 7.372 0 00-2.571 1.832 7.373 7.373 0 00-2.606-1.764 7.372 7.372 0 00-3.11-.523 7.37 7.37 0 00-.595-3.088 7.37 7.37 0 00-1.83-2.569A7.37 7.37 0 005.72 9.495a7.37 7.37 0 00.523-3.11 7.373 7.373 0 003.089-.596A7.371 7.371 0 0011.9 3.96a7.371 7.371 0 002.604 1.763 7.372 7.372 0 003.11.523 7.373 7.373 0 00.596 3.087 7.372 7.372 0 001.83 2.57 7.37 7.37 0 00-1.761 2.605zm-8.577-1.755a1.055 1.055 0 00-1.75.065 1.054 1.054 0 00.043 1.17 4.965 4.965 0 004.031 2.051c1.66 0 3.132-.809 4.03-2.051a1.053 1.053 0 00-1.706-1.235 2.857 2.857 0 01-2.324 1.18 2.858 2.858 0 01-2.324-1.18z" fill="url(#prefix__paint0_linear_3_177)"/></g><defs><linearGradient id="prefix__paint0_linear_3_177" x1="6.5" y1="-1" x2="15.5" y2="21" gradientUnits="userSpaceOnUse"><stop stop-color="#FFAE31"/><stop offset=".601" stop-color="#AB5EBD"/><stop offset="1" stop-color="#4D40B5"/></linearGradient><clipPath id="prefix__clip0_3_177"><path fill="#fff" d="M0 0h24v24H0z"/></clipPath></defs></svg>
