<svg width="40" height="40" viewBox="0 0 40 40" fill="none" xmlns="http://www.w3.org/2000/svg">
<path fill-rule="evenodd" clip-rule="evenodd" d="M21.7151 5.51831C21.6379 5.1231 21.4357 4.76315 21.1384 4.49156C20.8411 4.21997 20.4644 4.0511 20.0638 4.00987C19.6632 3.96864 19.26 4.05723 18.9136 4.26257C18.5672 4.46791 18.2959 4.77913 18.1398 5.15033L18.1352 5.14746C17.5095 6.5494 16.3767 7.66285 14.9642 8.26437C13.6113 8.84611 12.0933 8.917 10.6921 8.46388C10.3227 8.28616 9.90537 8.23412 9.50367 8.31572C9.10198 8.39731 8.738 8.60805 8.46725 8.9158C8.1965 9.22354 8.03384 9.6114 8.00409 10.0202C7.97434 10.429 8.07912 10.8363 8.30246 11.18C8.7061 12.476 8.68195 13.9077 8.13917 15.2629C7.63042 16.5391 6.70414 17.6052 5.5115 18.2872C5.11735 18.3657 4.75878 18.5686 4.48845 18.866C4.21813 19.1634 4.05031 19.5396 4.00964 19.9394C3.96898 20.3392 4.05762 20.7415 4.26253 21.0873C4.46745 21.433 4.77784 21.7038 5.14811 21.8601L5.14581 21.8658C6.54778 22.4916 7.66125 23.6243 8.26279 25.0368C8.84589 26.3934 8.91538 27.9157 8.45828 29.3198C8.28254 29.6901 8.23277 30.1078 8.31657 30.509C8.40036 30.9103 8.61312 31.2731 8.92239 31.5422C9.23166 31.8113 9.62045 31.9718 10.0295 31.9993C10.4385 32.0267 10.8453 31.9197 11.1877 31.6944C12.5241 31.2791 13.9628 31.3378 15.2609 31.8605C16.5399 32.3702 17.6079 33.2991 18.2899 34.4951C18.3697 34.8884 18.5734 35.2458 18.8711 35.515C19.1688 35.7841 19.545 35.9509 19.9443 35.9907C20.3437 36.0306 20.7453 35.9415 21.0904 35.7365C21.4354 35.5315 21.7057 35.2213 21.8617 34.8515L21.8675 34.8538C22.4931 33.452 23.6256 32.3386 25.0379 31.7369C26.3914 31.1551 27.9102 31.0846 29.3118 31.5386C29.6819 31.7163 30.1002 31.7679 30.5025 31.6854C30.9047 31.6029 31.2689 31.3908 31.5392 31.0816C31.8095 30.7725 31.971 30.3833 31.999 29.9736C32.0271 29.5639 31.9201 29.1563 31.6945 28.8132C31.2792 27.4765 31.3381 26.0373 31.8612 24.739C32.3705 23.4611 33.2983 22.3938 34.4929 21.7118C34.8866 21.6324 35.2444 21.4289 35.514 21.1312C35.7835 20.8336 35.9506 20.4574 35.9906 20.0578C36.0307 19.6583 35.9417 19.2564 35.7366 18.9111C35.5315 18.5659 35.2212 18.2954 34.8511 18.1395L34.8534 18.1343C33.4514 17.5088 32.3377 16.3763 31.7359 14.9639C31.1538 13.6097 31.0835 12.0901 31.5381 10.6879C31.7158 10.3174 31.7671 9.89889 31.6842 9.49648C31.6012 9.09406 31.3887 8.72993 31.079 8.45988C30.7693 8.18983 30.3797 8.02875 29.9697 8.00133C29.5597 7.97391 29.1521 8.08166 28.8092 8.30807C27.5167 8.70767 26.0896 8.68237 24.7383 8.14132C23.4634 7.63328 22.398 6.70855 21.7157 5.51774L21.7151 5.51831ZM28.3734 23.3424C27.8442 24.6582 27.6061 26.073 27.6754 27.4896C26.2624 27.4551 24.8585 27.7258 23.5596 28.2831C22.254 28.84 21.0845 29.673 20.1316 30.725C19.1563 29.7002 17.9713 28.8981 16.6575 28.3734C15.3416 27.8444 13.9268 27.6064 12.5102 27.6759C12.5449 26.2626 12.2742 24.8584 11.7167 23.5591C11.16 22.2545 10.3276 21.0859 9.27648 20.1335C10.3005 19.1584 11.1021 17.9738 11.6264 16.6606C12.1555 15.3446 12.3935 13.9296 12.3239 12.5128C13.7379 12.5475 15.1427 12.2767 16.4425 11.7188C17.7468 11.1624 18.9153 10.3303 19.8677 9.27976C20.8427 10.3035 22.0271 11.1048 23.34 11.6291C24.6559 12.1581 26.0708 12.396 27.4873 12.3265C27.453 13.7395 27.7238 15.1433 28.2814 16.4422C28.838 17.7474 29.6707 18.9167 30.7222 19.8696C29.6984 20.8447 28.8976 22.0293 28.3734 23.3424ZM16.9376 21.0034C16.8295 20.854 16.6931 20.7273 16.5361 20.6306C16.3791 20.5339 16.2045 20.469 16.0225 20.4398C15.8404 20.4105 15.6544 20.4174 15.4749 20.4601C15.2955 20.5027 15.1263 20.5803 14.9769 20.6883C14.8274 20.7964 14.7008 20.9328 14.604 21.0898C14.5073 21.2468 14.4425 21.4213 14.4132 21.6034C14.384 21.7854 14.3909 21.9715 14.4335 22.1509C14.4762 22.3303 14.5537 22.4995 14.6618 22.649C15.277 23.4979 16.085 24.1886 17.0194 24.6641C17.9538 25.1396 18.9877 25.3864 20.0361 25.3841C22.2487 25.3841 24.2122 24.306 25.4105 22.649C25.6287 22.3472 25.7181 21.9711 25.659 21.6034C25.5999 21.2357 25.3972 20.9065 25.0954 20.6883C24.7936 20.4701 24.4175 20.3807 24.0498 20.4398C23.6821 20.4989 23.3529 20.7016 23.1347 21.0034C22.7798 21.4924 22.3136 21.8899 21.7748 22.1632C21.2359 22.4366 20.6398 22.5778 20.0356 22.5754C19.4315 22.5776 18.8356 22.4363 18.297 22.163C17.7583 21.8897 17.2924 21.4922 16.9376 21.0034Z" fill="url(#paint0_linear_3_177)"/>
<defs>
<linearGradient id="paint0_linear_3_177" x1="12.6666" y1="2.66646" x2="24.6666" y2="31.9993" gradientUnits="userSpaceOnUse">
<stop stop-color="#FFAE31"/>
<stop offset="0.601" stop-color="#AB5EBD"/>
<stop offset="1" stop-color="#4D40B5"/>
</linearGradient>
</defs>
</svg>
