<svg width="24" height="24" viewBox="0 0 24 24" fill="none" xmlns="http://www.w3.org/2000/svg">
<rect x="1" y="1" width="22" height="22" rx="3" stroke="#6E6E6E" stroke-width="2"/>
<path d="M15.4889 18C15.163 18 14.8667 17.925 14.6 17.775C14.3333 17.625 14.1185 17.4143 13.9556 17.1429L8.31111 7.71429H4.88889C4.63704 7.71429 4.42593 7.63214 4.25556 7.46786C4.08519 7.30357 4 7.1 4 6.85714C4 6.61429 4.08519 6.41071 4.25556 6.24643C4.42593 6.08214 4.63704 6 4.88889 6H8.31111C8.63704 6 8.93333 6.075 9.2 6.225C9.46667 6.375 9.68148 6.58571 9.84444 6.85714L15.4889 16.2857H19.1111C19.363 16.2857 19.5741 16.3679 19.7444 16.5321C19.9148 16.6964 20 16.9 20 17.1429C20 17.3857 19.9148 17.5893 19.7444 17.7536C19.5741 17.9179 19.363 18 19.1111 18H15.4889ZM15.5556 7.71429C15.3037 7.71429 15.0926 7.63214 14.9222 7.46786C14.7519 7.30357 14.6667 7.1 14.6667 6.85714C14.6667 6.61429 14.7519 6.41071 14.9222 6.24643C15.0926 6.08214 15.3037 6 15.5556 6H19.1111C19.363 6 19.5741 6.08214 19.7444 6.24643C19.9148 6.41071 20 6.61429 20 6.85714C20 7.1 19.9148 7.30357 19.7444 7.46786C19.5741 7.63214 19.363 7.71429 19.1111 7.71429H15.5556Z" fill="#666666"/>
</svg>
