<svg width="56" height="56" fill="none" xmlns="http://www.w3.org/2000/svg">
  <path fill-rule="evenodd" clip-rule="evenodd" d="M29.715 13.518a1.878 1.878 0 0 0-3.575-.368l-.005-.002a6.082 6.082 0 0 1-3.17 3.116 6.08 6.08 0 0 1-4.273.2 1.879 1.879 0 0 0-2.39 2.716 6.075 6.075 0 0 1-.163 4.083 6.076 6.076 0 0 1-2.627 3.024 1.878 1.878 0 0 0-.364 3.573l-.002.006a6.082 6.082 0 0 1 3.117 3.17 6.08 6.08 0 0 1 .195 4.284 1.878 1.878 0 0 0 2.73 2.374 6.077 6.077 0 0 1 4.073.166 6.076 6.076 0 0 1 3.029 2.635 1.879 1.879 0 0 0 3.572.357l.006.002a6.082 6.082 0 0 1 3.17-3.117 6.079 6.079 0 0 1 4.274-.198 1.88 1.88 0 0 0 2.383-2.726 6.077 6.077 0 0 1 .166-4.074 6.076 6.076 0 0 1 2.632-3.027 1.879 1.879 0 0 0 .358-3.572l.002-.006a6.082 6.082 0 0 1-3.117-3.17 6.08 6.08 0 0 1-.198-4.276 1.878 1.878 0 0 0-2.729-2.38c-1.292.4-2.72.374-4.07-.167a6.075 6.075 0 0 1-3.023-2.623zm6.658 17.824a9.827 9.827 0 0 0-.698 4.148 9.83 9.83 0 0 0-4.115.793 9.828 9.828 0 0 0-3.428 2.442 9.828 9.828 0 0 0-3.475-2.352 9.828 9.828 0 0 0-4.147-.697 9.829 9.829 0 0 0-.793-4.117 9.828 9.828 0 0 0-2.44-3.425 9.828 9.828 0 0 0 2.35-3.473 9.827 9.827 0 0 0 .697-4.148 9.83 9.83 0 0 0 4.118-.794 9.83 9.83 0 0 0 3.426-2.44 9.83 9.83 0 0 0 3.472 2.35 9.828 9.828 0 0 0 4.147.697 9.829 9.829 0 0 0 .794 4.116 9.829 9.829 0 0 0 2.441 3.428 9.826 9.826 0 0 0-2.349 3.472zm-11.435-2.339a1.405 1.405 0 0 0-2.276 1.646 6.62 6.62 0 0 0 5.374 2.735 6.62 6.62 0 0 0 5.374-2.735 1.404 1.404 0 0 0-2.275-1.646 3.81 3.81 0 0 1-3.1 1.572 3.811 3.811 0 0 1-3.097-1.572z" fill="url(#a)"/>
  <defs>
    <linearGradient id="a" x1="20.667" y1="10.666" x2="32.667" y2="39.999" gradientUnits="userSpaceOnUse">
      <stop stop-color="#FFAE31"/>
      <stop offset=".601" stop-color="#AB5EBD"/>
      <stop offset="1" stop-color="#4D40B5"/>
    </linearGradient>
  </defs>
</svg>
