<svg width="123" height="95" viewBox="0 0 123 95" fill="none" xmlns="http://www.w3.org/2000/svg">
<g clip-path="url(#clip0_1_70)">
<path d="M20.2999 34.1999C26.8721 34.1999 32.1999 28.8721 32.1999 22.2999C32.1999 15.7277 26.8721 10.3999 20.2999 10.3999C13.7277 10.3999 8.3999 15.7277 8.3999 22.2999C8.3999 28.8721 13.7277 34.1999 20.2999 34.1999Z" fill="white"/>
<path d="M38.4001 38.3999C37.1001 38.3999 36.1001 39.3999 36.1001 40.6999C36.1001 41.9999 37.1001 42.9999 38.4001 42.9999C39.6001 42.9999 40.7001 41.9999 40.7001 40.6999C40.7001 39.3999 39.7001 38.3999 38.4001 38.3999ZM38.4001 42.5999C37.3001 42.5999 36.5001 41.7999 36.5001 40.6999C36.5001 39.5999 37.3001 38.7999 38.4001 38.7999C39.5001 38.7999 40.3001 39.5999 40.3001 40.6999C40.3001 41.7999 39.6001 42.5999 38.4001 42.5999Z" fill="#008BCC"/>
<path d="M39.6002 40.1001C39.6002 39.6001 39.4002 39.4001 38.7002 39.4001H37.6002V42.0001H37.9002V40.9001H38.5002L39.2002 42.0001H39.6002L38.8002 40.9001C39.3002 40.8001 39.6002 40.6001 39.6002 40.1001ZM38.4002 40.5001H37.9002V39.7001H38.6002C38.9002 39.7001 39.2002 39.7001 39.2002 40.1001C39.3002 40.6001 38.7002 40.5001 38.4002 40.5001ZM20.4002 25.4001C20.3002 25.4001 20.3002 25.4001 20.2002 25.5001L16.4002 31.3001C17.6002 31.8001 18.9002 32.1001 20.3002 32.1001C21.7002 32.1001 23.0002 31.8001 24.2002 31.3001L20.4002 25.5001C20.5002 25.4001 20.4002 25.4001 20.4002 25.4001ZM16.7002 20.6001L11.0002 20.1001C10.8002 20.8001 10.7002 21.6001 10.7002 22.4001C10.7002 24.8001 11.6002 27.0001 13.0002 28.7001L17.0002 21.1001C17.2002 20.9001 17.1002 20.7001 16.7002 20.6001Z" fill="#008BCC"/>
<path d="M29.4 13.3V2H11.3V13.3H0V31.4H11.3V42.7H29.4V31.4H40.7V13.3H29.4ZM20.4 11.2C24.9 11.2 28.8 13.8 30.5 17.7H22.5C21.4 17.7 20.9 17 20.8 16.5C20.8 15.9 20.9 15.7 21.4 15C22 14.2 21.6 12.8 20.3 12.7C19 12.7 18.6 14.2 19.2 15C19.7 15.7 19.8 15.9 19.8 16.5C19.8 17 19.3 17.7 18.1 17.7H10.1C12 13.9 15.9 11.2 20.4 11.2ZM9.2 22.4C9.2 21 9.5 19.7 9.9 18.5L17.4 19.2C18.8 19.4 19 20.8 18.6 21.6L13.5 31.3C10.9 29.2 9.2 26 9.2 22.4ZM26.5 31.8C24.7 33 22.6 33.6 20.3 33.6C18 33.6 15.9 32.9 14.1 31.8L19.6 23.7C20 23.1 20.6 23.2 21 23.7L26.5 31.8ZM27.3 31.2L22.2 21.6C21.8 20.8 22 19.4 23.4 19.2L30.9 18.5C31.4 19.7 31.6 21.1 31.6 22.4C31.6 26 29.9 29.2 27.3 31.2Z" fill="#008BCC"/>
<path d="M27.7001 16.1001C26.5001 14.7001 24.9001 13.6001 23.1001 13.1001C23.7001 14.0001 23.2001 15.3001 22.7001 15.9001C22.6001 16.0001 22.7001 16.1001 22.7001 16.1001H27.7001ZM24.1001 20.6001C23.7001 20.6001 23.7001 20.8001 23.8001 21.0001L27.8001 28.6001C29.2001 26.9001 30.1001 24.7001 30.1001 22.3001C30.1001 21.5001 30.0001 20.7001 29.8001 20.0001L24.1001 20.6001ZM17.7001 13.2001C15.9001 13.7001 14.3001 14.8001 13.1001 16.2001H18.1001C18.2001 16.2001 18.2001 16.1001 18.1001 16.0001C17.6001 15.3001 17.1001 14.1001 17.7001 13.2001Z" fill="#008BCC"/>
<path d="M63.1 7.1002C58 7.1002 50.2 4.7002 50.2 4.7002C50.2 4.7002 48.5 9.1002 48.5 15.1002C48.5 21.1002 53.5 36.9002 63.6 40.9002C63.6 40.9002 78 31.8002 78 15.9002C78 6.4002 76.6 4.7002 76.6 4.7002C76.6 4.7002 68.2 7.1002 63.1 7.1002Z" fill="white"/>
<path d="M77.1 2C72.7 4.2 68.3 5.4 63.2 5.4C58.1 5.4 53.7 4.2 49.3 2C46.4 7.7 46 16.9 48.5 24.6C50.9 32 55.6 38.8 63.2 43C70.9 38.8 75.5 32 77.9 24.6C80.5 16.9 80 7.7 77.1 2ZM75.1 23.7C72.9 30 69.6 35.6 63.3 39.5C57 35.6 53.6 30 51.5 23.7C49.6 18.1 49.1 11.5 51.2 6.4C54.4 7.5 56.2 7.8 57.9 8.1C59.5 8.4 60.9 8.5 63.3 8.5C65.6 8.5 67.1 8.3 68.7 8.1C70.4 7.8 72.3 7.5 75.4 6.4C77.4 11.5 77 18.1 75.1 23.7Z" fill="#008BCC"/>
<path d="M68.6999 9.4998C66.8999 9.6998 64.9999 9.8998 63.1999 9.8998C61.3999 9.8998 59.5999 9.6998 57.6999 9.4998C55.8999 9.1998 54.0999 8.7998 52.1999 8.2998C50.8999 12.0998 51.0999 16.8998 52.1999 21.0998C54.0999 29.0998 58.9999 35.1998 63.1999 37.8998C67.4999 35.1998 72.2999 29.0998 74.1999 21.0998C75.1999 16.7998 75.4999 12.0998 74.1999 8.2998C72.2999 8.7998 70.5999 9.2998 68.6999 9.4998ZM62.1999 34.1998C62.0999 34.5998 62.2999 34.7998 62.2999 34.9998C62.1999 35.2998 61.9999 35.1998 61.8999 34.9998C61.6999 34.6998 61.5999 34.4998 61.5999 33.9998C61.4999 33.1998 61.8999 32.8998 62.0999 32.6998C62.2999 32.4998 62.4999 32.3998 62.4999 32.3998L62.5999 33.6998C62.3999 33.6998 62.1999 33.7998 62.1999 34.1998ZM63.8999 35.4998C63.8999 35.6998 63.7999 35.8998 63.3999 35.8998C63.0999 35.8998 62.8999 35.7998 62.8999 35.3998C62.7999 33.7998 62.7999 30.8998 62.7999 30.8998C62.7999 30.8998 63.1999 30.9998 63.4999 31.1998C63.5999 31.1998 63.7999 31.3998 63.9999 31.5998C63.9999 31.6998 64.0999 31.6998 64.0999 31.7998C63.9999 32.8998 63.8999 34.9998 63.8999 35.4998ZM65.1999 32.4998C64.7999 32.7998 64.3999 32.8998 64.3999 32.8998V31.6998C64.3999 31.6998 64.4999 31.5998 64.4999 31.3998C64.3999 31.1998 63.5999 30.5998 63.1999 30.3998C62.6999 30.1998 62.0999 29.9998 61.6999 29.8998C60.6999 29.4998 60.2999 28.5998 60.6999 27.5998C60.7999 27.1998 61.2999 26.9998 61.4999 26.8998C61.6999 26.7998 62.0999 26.6998 62.0999 26.6998L62.1999 28.0998C62.1999 28.0998 62.0999 28.0998 61.9999 28.2998C61.8999 28.4998 62.0999 28.6998 62.1999 28.6998C62.8999 28.9998 63.7999 29.3998 64.4999 29.7998C65.3999 30.2998 65.6999 30.6998 65.6999 31.3998C65.7999 31.8998 65.4999 32.2998 65.1999 32.4998ZM62.6999 25.9998C63.3999 26.0998 63.5999 26.0998 64.1999 26.1998L64.0999 28.9998L63.4999 28.6998L62.8999 28.3998L62.6999 25.9998ZM66.6999 26.5998C66.5999 27.0998 66.2999 27.4998 65.7999 27.7998C65.2999 28.0998 64.6999 28.0998 64.6999 28.0998V26.3998C64.6999 26.3998 64.7999 26.3998 64.8999 26.2998C64.9999 26.1998 64.9999 26.0998 64.9999 25.9998C64.9999 25.8998 64.8999 25.7998 64.7999 25.6998C64.5999 25.5998 64.3999 25.5998 64.2999 25.5998L61.8999 25.2998C60.4999 25.0998 59.3999 24.1998 59.4999 22.7998C59.5999 21.8998 60.4999 21.5998 61.1999 21.2998L61.6999 22.2998C61.7999 22.6998 61.8999 22.8998 61.8999 22.8998C61.8999 22.8998 61.5999 22.9998 61.5999 23.1998C61.5999 23.3998 61.8999 23.4998 61.9999 23.4998C62.9999 23.5998 64.3999 23.7998 65.0999 24.0998C65.5999 24.2998 65.9999 24.4998 66.2999 24.8998C66.6999 25.5998 66.7999 26.0998 66.6999 26.5998ZM62.0999 20.0998C62.0999 20.0998 62.3999 20.0998 63.2999 20.1998C63.8999 20.1998 64.3999 20.3998 64.3999 20.3998L64.2999 23.3998C63.5999 23.2998 63.1999 23.1998 62.5999 23.0998C62.3999 21.9998 62.0999 21.5998 61.6999 20.7998C61.5999 20.5998 61.6999 20.4998 61.6999 20.4998C61.7999 20.3998 62.1999 20.2998 62.1999 20.2998L62.0999 20.0998ZM64.7999 23.0998C64.7999 23.0998 64.8999 21.6998 64.8999 20.9998C65.2999 20.8998 65.3999 20.4998 65.1999 20.1998C65.0999 19.9998 64.7999 19.8998 64.6999 19.8998C63.8999 19.6998 63.1999 19.6998 62.3999 19.5998C61.6999 19.4998 61.0999 19.3998 60.4999 19.2998C59.1999 18.9998 57.9999 18.2998 57.3999 17.0998C56.6999 15.5998 57.2999 13.6998 58.7999 12.9998C59.8999 12.3998 61.0999 12.4998 62.1999 12.9998C62.5999 13.0998 62.7999 13.4998 62.9999 13.7998C63.0999 13.8998 63.2999 13.9998 63.3999 14.1998C63.4999 14.2998 63.2999 14.2998 63.2999 14.2998C63.0999 14.3998 62.1999 14.3998 61.9999 14.2998H60.7999C61.0999 14.4998 61.4999 14.6998 61.8999 14.8998C62.0999 14.9998 62.2999 14.9998 62.4999 15.0998C62.5999 15.0998 62.7999 15.1998 62.7999 15.2998C62.7999 15.3998 62.5999 15.3998 62.3999 15.4998C62.0999 15.5998 61.6999 15.5998 61.2999 15.4998C60.6999 15.3998 60.3999 14.9998 59.9999 15.1998C59.6999 15.3998 59.6999 15.6998 59.7999 16.0998C59.8999 16.6998 60.4999 16.8998 60.9999 17.0998C62.6999 17.6998 64.5999 17.2998 66.1999 18.1998C66.7999 18.4998 67.5999 19.1998 67.6999 19.8998C68.1999 22.6998 64.7999 23.0998 64.7999 23.0998ZM67.7999 13.7998C67.6999 14.0998 67.5999 14.0998 67.3999 14.2998C66.9999 14.6998 66.3999 15.0998 65.7999 15.5998C65.3999 15.8998 65.0999 16.0998 64.7999 16.5998C64.6999 16.6998 64.5999 16.8998 64.5999 16.8998C63.5999 16.6998 62.6999 16.6998 61.8999 16.4998V15.6998C61.8999 15.6998 62.7999 15.6998 62.8999 15.0998C62.8999 15.0998 62.8999 14.8998 62.7999 14.7998C62.6999 14.6998 62.3999 14.5998 62.2999 14.5998C62.9999 14.6998 63.6999 14.9998 64.3999 15.2998C64.3999 15.1998 64.2999 14.8998 64.2999 14.8998C64.1999 14.7998 64.0999 14.6998 63.7999 14.5998C63.3999 14.4998 62.2999 14.3998 62.2999 14.3998H63.1999C63.3999 14.3998 63.6999 14.2998 63.6999 14.1998C63.7999 14.0998 63.6999 13.8998 63.4999 13.6998L63.1999 13.3998C63.0999 13.1998 62.8999 12.9998 62.7999 12.7998C62.5999 12.4998 61.7999 12.1998 61.7999 12.1998C61.7999 12.1998 61.6999 11.6998 61.8999 11.4998C61.9999 11.2998 62.3999 11.2998 62.4999 11.3998C62.9999 11.6998 63.6999 11.9998 64.3999 12.1998C64.5999 12.2998 64.5999 12.2998 64.5999 12.5998C64.6999 13.0998 64.4999 13.7998 64.5999 14.0998C64.5999 14.1998 64.7999 14.1998 64.7999 14.1998C65.4999 13.7998 65.8999 13.1998 66.5999 12.8998C67.0999 12.6998 67.9999 13.0998 67.7999 13.7998ZM77.2999 38.4998C76.0999 38.4998 75.0999 39.4998 75.0999 40.6998C75.0999 41.8998 76.0999 42.8998 77.2999 42.8998C78.4999 42.8998 79.4999 41.8998 79.4999 40.6998C79.4999 39.4998 78.4999 38.4998 77.2999 38.4998ZM77.2999 42.5998C76.1999 42.5998 75.3999 41.7998 75.3999 40.6998C75.3999 39.5998 76.1999 38.7998 77.2999 38.7998C78.3999 38.7998 79.1999 39.5998 79.1999 40.6998C79.1999 41.7998 78.3999 42.5998 77.2999 42.5998Z" fill="#008BCC"/>
<path d="M78.5002 40.0999C78.5002 39.5999 78.3002 39.3999 77.6002 39.3999H76.5002V41.9999H76.8002V40.8999H77.3002L78.0002 41.9999H78.4002L77.6002 40.8999C78.1002 40.7999 78.5002 40.5999 78.5002 40.0999ZM77.3002 40.5999H76.8002V39.7999H77.5002C77.8002 39.7999 78.1002 39.7999 78.1002 40.1999C78.1002 40.5999 77.6002 40.5999 77.3002 40.5999ZM61.1002 13.0999C61.3002 13.2999 61.3002 13.4999 61.6002 13.4999C61.8002 13.4999 61.9002 13.3999 62.0002 13.2999H62.2002C61.9002 12.9999 61.2002 12.9999 60.7002 12.8999C60.9002 13.0999 61.0002 12.9999 61.1002 13.0999Z" fill="#008BCC"/>
<path d="M0 68.8V51.6H6.5C9.6 51.4 12.7 52.7 12.7 56.1C12.7 58 11.4 59.3 9.7 59.9C11.9 60.4 13.5 61.9 13.5 64.4C13.5 67.8 9.2 69.1 6.6 68.9H0V68.8ZM6.6 58.5C8.2 58.5 9 57.9 9 56.5C9 55.1 8.1 54.5 6.6 54.5H3.7V58.6H6.6V58.5ZM6.6 65.9C8.3 65.9 9.5 65.6 9.5 63.6C9.5 61.6 8.3 61.3 6.6 61.3H3.7V65.9H6.6ZM19.4 51.6V68.8H15.8V51.6H19.4ZM30.3 67.3C29.5 68.4 28.4 69.1 26.6 69.1C25.4 69.1 23.1 68.2 22.7 66.5C22.5 65.8 22.5 65 22.5 64.6V56.8H26.1V64C26.1 65.3 26.5 66.8 28.2 66.8C29.3 66.8 30.3 65.8 30.3 64V56.8H33.9V66.6C33.9 67.3 34 68 34 68.7H30.4L30.3 67.3ZM40.2 63.8C40.2 65.4 40.4 66.8 42.3 66.8C43.5 66.8 44.2 66.3 44.5 65.2H47.7C47.4 68.2 45.1 69.1 42.3 69.1C38.2 69.1 36.5 66.8 36.5 62.8C36.5 59.2 38.6 56.4 42.3 56.4C44.5 56.4 46.4 57.2 47.4 59.3C47.7 60 47.9 60.7 48 61.4C48.1 62.1 48.1 62.9 48.1 63.7H40.2V63.8ZM44.4 61.4C44.4 60.1 44 58.9 42.3 58.9C40.7 58.9 40.3 60.1 40.2 61.4H44.4ZM60.2 57.1C60.2 55.3 59.1 53.8 56.9 53.8C54.3 53.8 53.6 57.7 53.6 60.1C53.6 62.5 54.3 66.4 56.9 66.4C59.1 66.4 60.2 64.9 60.2 63.1H64.1C63.9 67.4 60.8 69 56.9 69C51.9 69 49.7 65.1 49.7 60C49.7 55 51.9 51 56.9 51C60.9 51 64 52.6 64.1 56.9H60.2V57.1ZM69.3 56.8L69.4 59C70.2 57.1 71.7 56.6 73.5 56.7V59.9H71.9C71.3 59.9 70.5 60.3 70.2 60.8C69.8 61.5 69.7 62.1 69.7 62.9V68.8H66.1V59.2C66.1 58.7 66 57.7 66 56.8H69.3ZM81.3 69.2C77.4 69.2 75 66.6 75 62.8C75 59 77.3 56.4 81.3 56.4C85.2 56.4 87.6 59 87.6 62.8C87.6 66.6 85.2 69.2 81.3 69.2ZM81.3 66.8C83.5 66.8 83.9 64.7 83.9 62.8C83.9 60.9 83.5 58.8 81.3 58.8C79.1 58.8 78.7 60.9 78.7 62.8C78.8 64.7 79.1 66.8 81.3 66.8ZM96.2 60C96.2 59.2 95.4 58.8 94.6 58.8C93.6 58.8 93.2 59.1 93.2 59.9C93.2 61.8 100.1 60.7 100.1 65.2C100.1 67.8 96.9 69.1 94.7 69.1C91.9 69.1 89.5 68 89.4 65.3H92.7C92.8 66.2 93.6 66.8 94.7 66.8C95.7 66.8 96.4 66.4 96.4 65.5C96.4 64.5 94.7 64.1 94 64C91.7 63.5 89.6 62.9 89.6 60.2C89.6 57.7 92.6 56.6 94.7 56.6C97.2 56.6 99.4 57.5 99.5 60.2H96.2V60ZM108.1 60C108.1 59.2 107.3 58.8 106.5 58.8C105.5 58.8 105.1 59.1 105.1 59.9C105.1 61.8 112 60.7 112 65.2C112 67.8 108.8 69.1 106.6 69.1C103.8 69.1 101.4 68 101.3 65.3H104.6C104.7 66.2 105.5 66.8 106.6 66.8C107.6 66.8 108.3 66.4 108.3 65.5C108.3 64.5 106.6 64.1 105.9 64C103.6 63.5 101.5 62.9 101.5 60.2C101.5 57.7 104.5 56.6 106.6 56.6C109.1 56.6 111.3 57.5 111.4 60.2H108.1V60ZM0 92.2V75H6.5C9.6 74.8 12.7 76.1 12.7 79.5C12.7 81.4 11.4 82.7 9.7 83.3C11.9 83.8 13.5 85.3 13.5 87.8C13.5 91.2 9.2 92.5 6.6 92.3H0V92.2ZM6.6 81.9C8.2 81.9 9 81.3 9 79.9C9 78.5 8.1 77.9 6.6 77.9H3.7V82L6.6 81.9ZM6.6 89.3C8.3 89.3 9.5 89 9.5 87C9.5 85 8.3 84.7 6.6 84.7H3.7V89.3H6.6ZM19.4 75V92.2H15.8V75H19.4ZM30.3 90.7C29.5 91.8 28.4 92.5 26.6 92.5C25.4 92.5 23.1 91.6 22.7 89.8C22.5 89.1 22.5 88.3 22.5 87.9V80.1H26.1V87.4C26.1 88.7 26.5 90.2 28.2 90.2C29.3 90.2 30.3 89.2 30.3 87.4V80.2H33.9V90C33.9 90.7 34 91.4 34 92.1H30.4L30.3 90.7ZM40.2 87.2C40.2 88.8 40.4 90.2 42.3 90.2C43.5 90.2 44.2 89.7 44.5 88.6H47.7C47.4 91.6 45.1 92.5 42.3 92.5C38.2 92.5 36.5 90.2 36.5 86.2C36.5 82.6 38.6 79.8 42.3 79.8C44.5 79.8 46.4 80.6 47.4 82.7C47.7 83.4 47.9 84.1 48 84.8C48.1 85.5 48.1 86.3 48.1 87.1L40.2 87.2ZM44.4 84.8C44.4 83.5 44 82.3 42.3 82.3C40.7 82.3 40.3 83.5 40.2 84.8H44.4ZM59.7 79.9C59.6 78.2 58.6 77.3 56.8 77.3C55.4 77.3 54.1 78 54.1 79.5C54.1 81.4 55.8 81.6 57.3 81.9C59.9 82.6 63.8 83.3 63.8 86.8C63.8 91.1 60.1 92.6 56.4 92.6C52.5 92.6 49.7 91.1 49.8 86.7H53.6C53.5 88.6 54.6 89.9 56.5 89.9C58 89.9 59.9 89.4 59.9 87.6C59.9 85.6 57.4 85.4 56 85C53.6 84.4 50.3 83.3 50.3 80.2C50.3 76.3 53.9 74.5 57.5 74.5C60.8 74.5 63.4 76.3 63.4 79.8L59.7 79.9ZM66.3 92.2V75H69.9V81.7C70.6 80.6 71.8 79.9 73.6 79.9C74.8 79.9 77.1 80.8 77.5 82.5C77.7 83.2 77.7 84 77.7 84.4V92.2H74.2V85C74.2 83.7 73.8 82.3 72.1 82.3C71 82.3 70 83.3 70 85V92.2H66.3ZM84.6 75V78.1H80.8V75H84.6ZM84.4 80.2V92.2H80.8V80.2H84.4ZM90.7 87.2C90.7 88.8 90.9 90.2 92.8 90.2C94 90.2 94.7 89.7 95 88.6H98.2C97.9 91.6 95.6 92.5 92.8 92.5C88.7 92.5 87 90.2 87 86.2C87 82.6 89.1 79.8 92.8 79.8C95 79.8 96.9 80.6 97.9 82.7C98.2 83.4 98.4 84.1 98.5 84.8C98.6 85.5 98.6 86.3 98.6 87.1L90.7 87.2ZM94.8 84.8C94.8 83.5 94.4 82.3 92.7 82.3C91.1 82.3 90.7 83.5 90.6 84.8H94.8ZM104.3 75V92.2H100.7V75H104.3ZM115.7 75H119.3V89.9C119.3 90.7 119.4 91.5 119.4 92.3H115.8C115.8 91.7 115.7 91.2 115.7 90.6C114.9 92 113.6 92.7 112 92.7C108.5 92.7 106.8 89.4 106.8 86.3C106.8 83.1 108.7 79.9 112.4 79.9C113.6 79.9 114.9 80.6 115.6 81.6L115.7 75ZM113.1 90.2C115 90.2 115.7 87.9 115.7 86.2C115.7 84.6 115.1 82.2 113.1 82.2C110.8 82.2 110.5 84.3 110.5 86.2C110.5 88 110.8 90.2 113.1 90.2ZM113.7 68.8C113.1 68.8 112.6 68.3 112.6 67.7C112.6 67.1 113.1 66.6 113.7 66.6C114.3 66.6 114.8 67.1 114.8 67.7C114.8 68.3 114.4 68.8 113.7 68.8ZM113.7 66.3C113 66.3 112.4 66.9 112.4 67.6C112.4 68.3 113 68.9 113.7 68.9C114.4 68.9 115 68.3 115 67.6C115 66.9 114.4 66.3 113.7 66.3Z" fill="#231F20"/>
<path d="M113.7 67.5999H113.4V67.0999H113.8C114 67.0999 114.2 67.0999 114.2 67.2999C114.2 67.5999 113.9 67.5999 113.7 67.5999ZM114.4 67.2999C114.4 66.9999 114.3 66.8999 113.9 66.8999H113.2V68.3999H113.4V67.6999H113.7L114.2 68.3999H114.4L114 67.6999C114.2 67.6999 114.4 67.5999 114.4 67.2999ZM121.4 92.0999C120.8 92.0999 120.3 91.5999 120.3 90.9999C120.3 90.3999 120.8 89.8999 121.4 89.8999C122 89.8999 122.5 90.3999 122.5 90.9999C122.5 91.5999 122 92.0999 121.4 92.0999ZM121.4 89.5999C120.7 89.5999 120.1 90.1999 120.1 90.8999C120.1 91.5999 120.7 92.1999 121.4 92.1999C122.1 92.1999 122.7 91.5999 122.7 90.8999C122.7 90.1999 122.1 89.5999 121.4 89.5999Z" fill="#231F20"/>
<path d="M121.3 90.8997H121V90.3997H121.4C121.6 90.3997 121.8 90.3997 121.8 90.5997C121.8 90.8997 121.6 90.8997 121.3 90.8997ZM122.1 90.5997C122.1 90.2997 122 90.1997 121.6 90.1997H120.9V91.6997H121.1V90.9997H121.4L121.8 91.6997H122L121.6 90.9997C121.9 90.9997 122.1 90.8997 122.1 90.5997Z" fill="#231F20"/>
</g>
<defs>
<clipPath id="clip0_1_70">
<rect width="122.7" height="94.7" fill="white"/>
</clipPath>
</defs>
</svg>
