<svg width="215" height="46" viewBox="0 0 215 46" fill="none" xmlns="http://www.w3.org/2000/svg">
<g clip-path="url(#clip0_1_87)">
<path d="M20.2999 34.55C26.8721 34.55 32.1999 29.2222 32.1999 22.65C32.1999 16.0778 26.8721 10.75 20.2999 10.75C13.7277 10.75 8.3999 16.0778 8.3999 22.65C8.3999 29.2222 13.7277 34.55 20.2999 34.55Z" fill="white"/>
<path d="M38.4001 38.75C37.1001 38.75 36.1001 39.75 36.1001 41.05C36.1001 42.35 37.1001 43.35 38.4001 43.35C39.6001 43.35 40.7001 42.35 40.7001 41.05C40.7001 39.75 39.7001 38.75 38.4001 38.75ZM38.4001 42.95C37.3001 42.95 36.5001 42.15 36.5001 41.05C36.5001 39.95 37.3001 39.15 38.4001 39.15C39.5001 39.15 40.3001 39.95 40.3001 41.05C40.3001 42.15 39.6001 42.95 38.4001 42.95Z" fill="#008BCC"/>
<path d="M39.6002 40.4502C39.6002 39.9502 39.4002 39.7502 38.7002 39.7502H37.6002V42.3502H37.9002V41.2502H38.5002L39.2002 42.3502H39.6002L38.8002 41.2502C39.3002 41.1502 39.6002 40.9502 39.6002 40.4502ZM38.4002 40.8502H37.9002V40.0502H38.6002C38.9002 40.0502 39.2002 40.0502 39.2002 40.4502C39.3002 40.9502 38.7002 40.8502 38.4002 40.8502ZM20.4002 25.7502C20.3002 25.7502 20.3002 25.7502 20.2002 25.8502L16.4002 31.6502C17.6002 32.1502 18.9002 32.4502 20.3002 32.4502C21.7002 32.4502 23.0002 32.1502 24.2002 31.6502L20.4002 25.8502C20.5002 25.7502 20.4002 25.7502 20.4002 25.7502ZM16.7002 20.9502L11.0002 20.4502C10.8002 21.1502 10.7002 21.9502 10.7002 22.7502C10.7002 25.1502 11.6002 27.3502 13.0002 29.0502L17.0002 21.4502C17.2002 21.2502 17.1002 21.0502 16.7002 20.9502Z" fill="#008BCC"/>
<path d="M29.4 13.6501V2.3501H11.3V13.6501H0V31.7501H11.3V43.0501H29.4V31.7501H40.7V13.6501H29.4ZM20.4 11.5501C24.9 11.5501 28.8 14.1501 30.5 18.0501H22.5C21.4 18.0501 20.9 17.3501 20.8 16.8501C20.8 16.2501 20.9 16.0501 21.4 15.3501C22 14.5501 21.6 13.1501 20.3 13.0501C19 13.0501 18.6 14.5501 19.2 15.3501C19.7 16.0501 19.8 16.2501 19.8 16.8501C19.8 17.3501 19.3 18.0501 18.1 18.0501H10.1C12 14.2501 15.9 11.5501 20.4 11.5501ZM9.2 22.7501C9.2 21.3501 9.5 20.0501 9.9 18.8501L17.4 19.5501C18.8 19.7501 19 21.1501 18.6 21.9501L13.5 31.6501C10.9 29.5501 9.2 26.3501 9.2 22.7501ZM26.5 32.1501C24.7 33.3501 22.6 33.9501 20.3 33.9501C18 33.9501 15.9 33.2501 14.1 32.1501L19.6 24.0501C20 23.4501 20.6 23.5501 21 24.0501L26.5 32.1501ZM27.3 31.5501L22.2 21.9501C21.8 21.1501 22 19.7501 23.4 19.5501L30.9 18.8501C31.4 20.0501 31.6 21.4501 31.6 22.7501C31.6 26.3501 29.9 29.5501 27.3 31.5501Z" fill="#008BCC"/>
<path d="M27.7001 16.4502C26.5001 15.0502 24.9001 13.9502 23.1001 13.4502C23.7001 14.3502 23.2001 15.6502 22.7001 16.2502C22.6001 16.3502 22.7001 16.4502 22.7001 16.4502H27.7001ZM24.1001 20.9502C23.7001 20.9502 23.7001 21.1502 23.8001 21.3502L27.8001 28.9502C29.2001 27.2502 30.1001 25.0502 30.1001 22.6502C30.1001 21.8502 30.0001 21.0502 29.8001 20.3502L24.1001 20.9502ZM17.7001 13.5502C15.9001 14.0502 14.3001 15.1502 13.1001 16.5502H18.1001C18.2001 16.5502 18.2001 16.4502 18.1001 16.3502C17.6001 15.6502 17.1001 14.4502 17.7001 13.5502Z" fill="#008BCC"/>
<path d="M63.1 7.45029C58 7.45029 50.2 5.05029 50.2 5.05029C50.2 5.05029 48.5 9.45029 48.5 15.4503C48.5 21.4503 53.5 37.2503 63.6 41.2503C63.6 41.2503 78 32.1503 78 16.2503C78 6.75029 76.6 5.05029 76.6 5.05029C76.6 5.05029 68.2 7.45029 63.1 7.45029Z" fill="white"/>
<path d="M77.1 2.3501C72.7 4.5501 68.3 5.7501 63.2 5.7501C58.1 5.7501 53.7 4.5501 49.3 2.3501C46.4 8.0501 46 17.2501 48.5 24.9501C50.9 32.3501 55.6 39.1501 63.2 43.3501C70.9 39.1501 75.5 32.3501 77.9 24.9501C80.5 17.2501 80 8.0501 77.1 2.3501ZM75.1 24.0501C72.9 30.3501 69.6 35.9501 63.3 39.8501C57 35.9501 53.6 30.3501 51.5 24.0501C49.6 18.4501 49.1 11.8501 51.2 6.7501C54.4 7.8501 56.2 8.1501 57.9 8.4501C59.5 8.7501 60.9 8.8501 63.3 8.8501C65.6 8.8501 67.1 8.6501 68.7 8.4501C70.4 8.1501 72.3 7.8501 75.4 6.7501C77.4 11.8501 77 18.4501 75.1 24.0501Z" fill="#008BCC"/>
<path d="M68.6999 9.8499C66.8999 10.0499 64.9999 10.2499 63.1999 10.2499C61.3999 10.2499 59.5999 10.0499 57.6999 9.8499C55.8999 9.5499 54.0999 9.1499 52.1999 8.6499C50.8999 12.4499 51.0999 17.2499 52.1999 21.4499C54.0999 29.4499 58.9999 35.5499 63.1999 38.2499C67.4999 35.5499 72.2999 29.4499 74.1999 21.4499C75.1999 17.1499 75.4999 12.4499 74.1999 8.6499C72.2999 9.1499 70.5999 9.6499 68.6999 9.8499ZM62.1999 34.5499C62.0999 34.9499 62.2999 35.1499 62.2999 35.3499C62.1999 35.6499 61.9999 35.5499 61.8999 35.3499C61.6999 35.0499 61.5999 34.8499 61.5999 34.3499C61.4999 33.5499 61.8999 33.2499 62.0999 33.0499C62.2999 32.8499 62.4999 32.7499 62.4999 32.7499L62.5999 34.0499C62.3999 34.0499 62.1999 34.1499 62.1999 34.5499ZM63.8999 35.8499C63.8999 36.0499 63.7999 36.2499 63.3999 36.2499C63.0999 36.2499 62.8999 36.1499 62.8999 35.7499C62.7999 34.1499 62.7999 31.2499 62.7999 31.2499C62.7999 31.2499 63.1999 31.3499 63.4999 31.5499C63.5999 31.5499 63.7999 31.7499 63.9999 31.9499C63.9999 32.0499 64.0999 32.0499 64.0999 32.1499C63.9999 33.2499 63.8999 35.3499 63.8999 35.8499ZM65.1999 32.8499C64.7999 33.1499 64.3999 33.2499 64.3999 33.2499V32.0499C64.3999 32.0499 64.4999 31.9499 64.4999 31.7499C64.3999 31.5499 63.5999 30.9499 63.1999 30.7499C62.6999 30.5499 62.0999 30.3499 61.6999 30.2499C60.6999 29.8499 60.2999 28.9499 60.6999 27.9499C60.7999 27.5499 61.2999 27.3499 61.4999 27.2499C61.6999 27.1499 62.0999 27.0499 62.0999 27.0499L62.1999 28.4499C62.1999 28.4499 62.0999 28.4499 61.9999 28.6499C61.8999 28.8499 62.0999 29.0499 62.1999 29.0499C62.8999 29.3499 63.7999 29.7499 64.4999 30.1499C65.3999 30.6499 65.6999 31.0499 65.6999 31.7499C65.7999 32.2499 65.4999 32.6499 65.1999 32.8499ZM62.6999 26.3499C63.3999 26.4499 63.5999 26.4499 64.1999 26.5499L64.0999 29.3499L63.4999 29.0499L62.8999 28.7499L62.6999 26.3499ZM66.6999 26.9499C66.5999 27.4499 66.2999 27.8499 65.7999 28.1499C65.2999 28.4499 64.6999 28.4499 64.6999 28.4499V26.7499C64.6999 26.7499 64.7999 26.7499 64.8999 26.6499C64.9999 26.5499 64.9999 26.4499 64.9999 26.3499C64.9999 26.2499 64.8999 26.1499 64.7999 26.0499C64.5999 25.9499 64.3999 25.9499 64.2999 25.9499L61.8999 25.6499C60.4999 25.4499 59.3999 24.5499 59.4999 23.1499C59.5999 22.2499 60.4999 21.9499 61.1999 21.6499L61.6999 22.6499C61.7999 23.0499 61.8999 23.2499 61.8999 23.2499C61.8999 23.2499 61.5999 23.3499 61.5999 23.5499C61.5999 23.7499 61.8999 23.8499 61.9999 23.8499C62.9999 23.9499 64.3999 24.1499 65.0999 24.4499C65.5999 24.6499 65.9999 24.8499 66.2999 25.2499C66.6999 25.9499 66.7999 26.4499 66.6999 26.9499ZM62.0999 20.4499C62.0999 20.4499 62.3999 20.4499 63.2999 20.5499C63.8999 20.5499 64.3999 20.7499 64.3999 20.7499L64.2999 23.7499C63.5999 23.6499 63.1999 23.5499 62.5999 23.4499C62.3999 22.3499 62.0999 21.9499 61.6999 21.1499C61.5999 20.9499 61.6999 20.8499 61.6999 20.8499C61.7999 20.7499 62.1999 20.6499 62.1999 20.6499L62.0999 20.4499ZM64.7999 23.4499C64.7999 23.4499 64.8999 22.0499 64.8999 21.3499C65.2999 21.2499 65.3999 20.8499 65.1999 20.5499C65.0999 20.3499 64.7999 20.2499 64.6999 20.2499C63.8999 20.0499 63.1999 20.0499 62.3999 19.9499C61.6999 19.8499 61.0999 19.7499 60.4999 19.6499C59.1999 19.3499 57.9999 18.6499 57.3999 17.4499C56.6999 15.9499 57.2999 14.0499 58.7999 13.3499C59.8999 12.7499 61.0999 12.8499 62.1999 13.3499C62.5999 13.4499 62.7999 13.8499 62.9999 14.1499C63.0999 14.2499 63.2999 14.3499 63.3999 14.5499C63.4999 14.6499 63.2999 14.6499 63.2999 14.6499C63.0999 14.7499 62.1999 14.7499 61.9999 14.6499H60.7999C61.0999 14.8499 61.4999 15.0499 61.8999 15.2499C62.0999 15.3499 62.2999 15.3499 62.4999 15.4499C62.5999 15.4499 62.7999 15.5499 62.7999 15.6499C62.7999 15.7499 62.5999 15.7499 62.3999 15.8499C62.0999 15.9499 61.6999 15.9499 61.2999 15.8499C60.6999 15.7499 60.3999 15.3499 59.9999 15.5499C59.6999 15.7499 59.6999 16.0499 59.7999 16.4499C59.8999 17.0499 60.4999 17.2499 60.9999 17.4499C62.6999 18.0499 64.5999 17.6499 66.1999 18.5499C66.7999 18.8499 67.5999 19.5499 67.6999 20.2499C68.1999 23.0499 64.7999 23.4499 64.7999 23.4499ZM67.7999 14.1499C67.6999 14.4499 67.5999 14.4499 67.3999 14.6499C66.9999 15.0499 66.3999 15.4499 65.7999 15.9499C65.3999 16.2499 65.0999 16.4499 64.7999 16.9499C64.6999 17.0499 64.5999 17.2499 64.5999 17.2499C63.5999 17.0499 62.6999 17.0499 61.8999 16.8499V16.0499C61.8999 16.0499 62.7999 16.0499 62.8999 15.4499C62.8999 15.4499 62.8999 15.2499 62.7999 15.1499C62.6999 15.0499 62.3999 14.9499 62.2999 14.9499C62.9999 15.0499 63.6999 15.3499 64.3999 15.6499C64.3999 15.5499 64.2999 15.2499 64.2999 15.2499C64.1999 15.1499 64.0999 15.0499 63.7999 14.9499C63.3999 14.8499 62.2999 14.7499 62.2999 14.7499H63.1999C63.3999 14.7499 63.6999 14.6499 63.6999 14.5499C63.7999 14.4499 63.6999 14.2499 63.4999 14.0499L63.1999 13.7499C63.0999 13.5499 62.8999 13.3499 62.7999 13.1499C62.5999 12.8499 61.7999 12.5499 61.7999 12.5499C61.7999 12.5499 61.6999 12.0499 61.8999 11.8499C61.9999 11.6499 62.3999 11.6499 62.4999 11.7499C62.9999 12.0499 63.6999 12.3499 64.3999 12.5499C64.5999 12.6499 64.5999 12.6499 64.5999 12.9499C64.6999 13.4499 64.4999 14.1499 64.5999 14.4499C64.5999 14.5499 64.7999 14.5499 64.7999 14.5499C65.4999 14.1499 65.8999 13.5499 66.5999 13.2499C67.0999 13.0499 67.9999 13.4499 67.7999 14.1499ZM77.2999 38.8499C76.0999 38.8499 75.0999 39.8499 75.0999 41.0499C75.0999 42.2499 76.0999 43.2499 77.2999 43.2499C78.4999 43.2499 79.4999 42.2499 79.4999 41.0499C79.4999 39.8499 78.4999 38.8499 77.2999 38.8499ZM77.2999 42.9499C76.1999 42.9499 75.3999 42.1499 75.3999 41.0499C75.3999 39.9499 76.1999 39.1499 77.2999 39.1499C78.3999 39.1499 79.1999 39.9499 79.1999 41.0499C79.1999 42.1499 78.3999 42.9499 77.2999 42.9499Z" fill="#008BCC"/>
<path d="M78.5002 40.45C78.5002 39.95 78.3002 39.75 77.6002 39.75H76.5002V42.35H76.8002V41.25H77.3002L78.0002 42.35H78.4002L77.6002 41.25C78.1002 41.15 78.5002 40.95 78.5002 40.45ZM77.3002 40.95H76.8002V40.15H77.5002C77.8002 40.15 78.1002 40.15 78.1002 40.55C78.1002 40.95 77.6002 40.95 77.3002 40.95ZM61.1002 13.45C61.3002 13.65 61.3002 13.85 61.6002 13.85C61.8002 13.85 61.9002 13.75 62.0002 13.65H62.2002C61.9002 13.35 61.2002 13.35 60.7002 13.25C60.9002 13.45 61.0002 13.35 61.1002 13.45Z" fill="#008BCC"/>
<path d="M91.5913 19.8V2.6H98.0913C101.191 2.4 104.291 3.7 104.291 7.1C104.291 9 102.991 10.3 101.291 10.9C103.491 11.4 105.091 12.9 105.091 15.4C105.091 18.8 100.791 20.1 98.1913 19.9H91.5913V19.8ZM98.1913 9.5C99.7913 9.5 100.591 8.9 100.591 7.5C100.591 6.1 99.6913 5.5 98.1913 5.5H95.2913V9.6H98.1913V9.5ZM98.1913 16.9C99.8913 16.9 101.091 16.6 101.091 14.6C101.091 12.6 99.8913 12.3 98.1913 12.3H95.2913V16.9H98.1913ZM110.991 2.6V19.8H107.391V2.6H110.991ZM121.891 18.3C121.091 19.4 119.991 20.1 118.191 20.1C116.991 20.1 114.691 19.2 114.291 17.5C114.091 16.8 114.091 16 114.091 15.6V7.8H117.691V15C117.691 16.3 118.091 17.8 119.791 17.8C120.891 17.8 121.891 16.8 121.891 15V7.8H125.491V17.6C125.491 18.3 125.591 19 125.591 19.7H121.991L121.891 18.3ZM131.791 14.8C131.791 16.4 131.991 17.8 133.891 17.8C135.091 17.8 135.791 17.3 136.091 16.2H139.291C138.991 19.2 136.691 20.1 133.891 20.1C129.791 20.1 128.091 17.8 128.091 13.8C128.091 10.2 130.191 7.4 133.891 7.4C136.091 7.4 137.991 8.2 138.991 10.3C139.291 11 139.491 11.7 139.591 12.4C139.691 13.1 139.691 13.9 139.691 14.7H131.791V14.8ZM135.991 12.4C135.991 11.1 135.591 9.9 133.891 9.9C132.291 9.9 131.891 11.1 131.791 12.4H135.991ZM151.791 8.1C151.791 6.3 150.691 4.8 148.491 4.8C145.891 4.8 145.191 8.7 145.191 11.1C145.191 13.5 145.891 17.4 148.491 17.4C150.691 17.4 151.791 15.9 151.791 14.1H155.691C155.491 18.4 152.391 20 148.491 20C143.491 20 141.291 16.1 141.291 11C141.291 6 143.491 2 148.491 2C152.491 2 155.591 3.6 155.691 7.9H151.791V8.1ZM160.891 7.8L160.991 10C161.791 8.1 163.291 7.6 165.091 7.7V10.9H163.491C162.891 10.9 162.091 11.3 161.791 11.8C161.391 12.5 161.291 13.1 161.291 13.9V19.8H157.691V10.2C157.691 9.7 157.591 8.7 157.591 7.8H160.891ZM172.891 20.2C168.991 20.2 166.591 17.6 166.591 13.8C166.591 10 168.891 7.4 172.891 7.4C176.791 7.4 179.191 10 179.191 13.8C179.191 17.6 176.791 20.2 172.891 20.2ZM172.891 17.8C175.091 17.8 175.491 15.7 175.491 13.8C175.491 11.9 175.091 9.8 172.891 9.8C170.691 9.8 170.291 11.9 170.291 13.8C170.391 15.7 170.691 17.8 172.891 17.8ZM187.791 11C187.791 10.2 186.991 9.8 186.191 9.8C185.191 9.8 184.791 10.1 184.791 10.9C184.791 12.8 191.691 11.7 191.691 16.2C191.691 18.8 188.491 20.1 186.291 20.1C183.491 20.1 181.091 19 180.991 16.3H184.291C184.391 17.2 185.191 17.8 186.291 17.8C187.291 17.8 187.991 17.4 187.991 16.5C187.991 15.5 186.291 15.1 185.591 15C183.291 14.5 181.191 13.9 181.191 11.2C181.191 8.7 184.191 7.6 186.291 7.6C188.791 7.6 190.991 8.5 191.091 11.2H187.791V11ZM199.691 11C199.691 10.2 198.891 9.8 198.091 9.8C197.091 9.8 196.691 10.1 196.691 10.9C196.691 12.8 203.591 11.7 203.591 16.2C203.591 18.8 200.391 20.1 198.191 20.1C195.391 20.1 192.991 19 192.891 16.3H196.191C196.291 17.2 197.091 17.8 198.191 17.8C199.191 17.8 199.891 17.4 199.891 16.5C199.891 15.5 198.191 15.1 197.491 15C195.191 14.5 193.091 13.9 193.091 11.2C193.091 8.7 196.091 7.6 198.191 7.6C200.691 7.6 202.891 8.5 202.991 11.2H199.691V11ZM91.5913 43.2V26H98.0913C101.191 25.8 104.291 27.1 104.291 30.5C104.291 32.4 102.991 33.7 101.291 34.3C103.491 34.8 105.091 36.3 105.091 38.8C105.091 42.2 100.791 43.5 98.1913 43.3H91.5913V43.2ZM98.1913 32.9C99.7913 32.9 100.591 32.3 100.591 30.9C100.591 29.5 99.6913 28.9 98.1913 28.9H95.2913V33L98.1913 32.9ZM98.1913 40.3C99.8913 40.3 101.091 40 101.091 38C101.091 36 99.8913 35.7 98.1913 35.7H95.2913V40.3H98.1913ZM110.991 26V43.2H107.391V26H110.991ZM121.891 41.7C121.091 42.8 119.991 43.5 118.191 43.5C116.991 43.5 114.691 42.6 114.291 40.8C114.091 40.1 114.091 39.3 114.091 38.9V31.1H117.691V38.4C117.691 39.7 118.091 41.2 119.791 41.2C120.891 41.2 121.891 40.2 121.891 38.4V31.2H125.491V41C125.491 41.7 125.591 42.4 125.591 43.1H121.991L121.891 41.7ZM131.791 38.2C131.791 39.8 131.991 41.2 133.891 41.2C135.091 41.2 135.791 40.7 136.091 39.6H139.291C138.991 42.6 136.691 43.5 133.891 43.5C129.791 43.5 128.091 41.2 128.091 37.2C128.091 33.6 130.191 30.8 133.891 30.8C136.091 30.8 137.991 31.6 138.991 33.7C139.291 34.4 139.491 35.1 139.591 35.8C139.691 36.5 139.691 37.3 139.691 38.1L131.791 38.2ZM135.991 35.8C135.991 34.5 135.591 33.3 133.891 33.3C132.291 33.3 131.891 34.5 131.791 35.8H135.991ZM151.291 30.9C151.191 29.2 150.191 28.3 148.391 28.3C146.991 28.3 145.691 29 145.691 30.5C145.691 32.4 147.391 32.6 148.891 32.9C151.491 33.6 155.391 34.3 155.391 37.8C155.391 42.1 151.691 43.6 147.991 43.6C144.091 43.6 141.291 42.1 141.391 37.7H145.191C145.091 39.6 146.191 40.9 148.091 40.9C149.591 40.9 151.491 40.4 151.491 38.6C151.491 36.6 148.991 36.4 147.591 36C145.191 35.4 141.891 34.3 141.891 31.2C141.891 27.3 145.491 25.5 149.091 25.5C152.391 25.5 154.991 27.3 154.991 30.8L151.291 30.9ZM157.891 43.2V26H161.491V32.7C162.191 31.6 163.391 30.9 165.191 30.9C166.391 30.9 168.691 31.8 169.091 33.5C169.291 34.2 169.291 35 169.291 35.4V43.2H165.791V36C165.791 34.7 165.391 33.3 163.691 33.3C162.591 33.3 161.591 34.3 161.591 36V43.2H157.891ZM176.191 26V29.1H172.391V26H176.191ZM175.991 31.2V43.2H172.391V31.2H175.991ZM182.291 38.2C182.291 39.8 182.491 41.2 184.391 41.2C185.591 41.2 186.291 40.7 186.591 39.6H189.791C189.491 42.6 187.191 43.5 184.391 43.5C180.291 43.5 178.591 41.2 178.591 37.2C178.591 33.6 180.691 30.8 184.391 30.8C186.591 30.8 188.491 31.6 189.491 33.7C189.791 34.4 189.991 35.1 190.091 35.8C190.191 36.5 190.191 37.3 190.191 38.1L182.291 38.2ZM186.391 35.8C186.391 34.5 185.991 33.3 184.291 33.3C182.691 33.3 182.291 34.5 182.191 35.8H186.391ZM195.891 26V43.2H192.291V26H195.891ZM207.291 26H210.891V40.9C210.891 41.7 210.991 42.5 210.991 43.3H207.391C207.391 42.7 207.291 42.2 207.291 41.6C206.491 43 205.191 43.7 203.591 43.7C200.091 43.7 198.391 40.4 198.391 37.3C198.391 34.1 200.291 30.9 203.991 30.9C205.191 30.9 206.491 31.6 207.191 32.6L207.291 26ZM204.691 41.2C206.591 41.2 207.291 38.9 207.291 37.2C207.291 35.6 206.691 33.2 204.691 33.2C202.391 33.2 202.091 35.3 202.091 37.2C202.091 39 202.391 41.2 204.691 41.2ZM205.291 19.8C204.691 19.8 204.191 19.3 204.191 18.7C204.191 18.1 204.691 17.6 205.291 17.6C205.891 17.6 206.391 18.1 206.391 18.7C206.391 19.3 205.991 19.8 205.291 19.8ZM205.291 17.3C204.591 17.3 203.991 17.9 203.991 18.6C203.991 19.3 204.591 19.9 205.291 19.9C205.991 19.9 206.591 19.3 206.591 18.6C206.591 17.9 205.991 17.3 205.291 17.3Z" fill="#231F20"/>
<path d="M205.292 18.5999H204.992V18.0999H205.392C205.592 18.0999 205.792 18.0999 205.792 18.2999C205.792 18.5999 205.492 18.5999 205.292 18.5999ZM205.992 18.2999C205.992 17.9999 205.892 17.8999 205.492 17.8999H204.792V19.3999H204.992V18.6999H205.292L205.792 19.3999H205.992L205.592 18.6999C205.792 18.6999 205.992 18.5999 205.992 18.2999ZM212.992 43.0999C212.392 43.0999 211.892 42.5999 211.892 41.9999C211.892 41.3999 212.392 40.8999 212.992 40.8999C213.592 40.8999 214.092 41.3999 214.092 41.9999C214.092 42.5999 213.592 43.0999 212.992 43.0999ZM212.992 40.5999C212.292 40.5999 211.691 41.1999 211.691 41.8999C211.691 42.5999 212.292 43.1999 212.992 43.1999C213.692 43.1999 214.292 42.5999 214.292 41.8999C214.292 41.1999 213.692 40.5999 212.992 40.5999Z" fill="#231F20"/>
<path d="M212.892 41.8997H212.592V41.3997H212.992C213.192 41.3997 213.392 41.3997 213.392 41.5997C213.392 41.8997 213.192 41.8997 212.892 41.8997ZM213.692 41.5997C213.692 41.2997 213.592 41.1997 213.192 41.1997H212.492V42.6997H212.692V41.9997H212.992L213.392 42.6997H213.592L213.192 41.9997C213.492 41.9997 213.692 41.8997 213.692 41.5997Z" fill="#231F20"/>
</g>
<defs>
<clipPath id="clip0_1_87">
<rect width="214.291" height="45.7" fill="white"/>
</clipPath>
</defs>
</svg>
