<svg width="512" height="512" viewBox="0 0 512 512" fill="none" xmlns="http://www.w3.org/2000/svg">
<rect width="512" height="512" fill="#0F5BA7"/>
<path d="M208.189 88C201.635 88 196.326 93.3105 196.326 99.8587V183.03H415.964L315.942 88.0077L208.189 88Z" fill="white"/>
<path d="M424 208.192C424 201.628 418.729 196.341 412.137 196.341H329.012V416.047L423.962 315.952L424 208.192Z" fill="white"/>
<path d="M303.827 423.999C310.365 423.999 315.674 418.681 315.674 412.117V328.977H96.0283L196.066 423.983L303.827 423.999Z" fill="white"/>
<path d="M88 303.823C88 310.379 93.309 315.72 99.8784 315.72H182.988V95.998L88.0153 196.063L88 303.823Z" fill="white"/>
</svg>
