<svg width="492" height="492" viewBox="0 0 492 492" fill="none" xmlns="http://www.w3.org/2000/svg">
<rect width="400" height="70" transform="translate(0 422)" fill="#46B7E8"/>
<rect width="92" height="70" transform="translate(400 422)" fill="#002954"/>
<rect width="492" height="422" fill="#056CAE"/>
<path d="M188.252 269.467L187.708 269.994C179.162 278.701 169.273 283.301 159.086 283.301C137.812 283.301 122.378 267.341 122.378 245.326C122.378 223.346 137.812 207.36 159.086 207.36C169.273 207.36 179.162 211.986 187.708 220.727L188.252 221.246L201.934 204.698L201.568 204.256C190.191 190.813 176.535 184.274 159.75 184.274C142.922 184.274 127.514 189.946 116.426 200.158C104.352 211.229 98 226.841 98 245.326C98 263.812 104.352 279.458 116.426 290.529C127.514 300.801 142.922 306.43 159.75 306.43C176.535 306.43 190.191 299.882 201.568 286.43L201.934 286.022L188.252 269.467Z" fill="white"/>
<path d="M215.752 304.173H239.918V186.184H215.752V304.173Z" fill="white"/>
<path d="M334.596 278.524C328.142 282.452 322.147 284.433 316.756 284.433C308.942 284.433 305.404 280.301 305.404 271.118V208.509H330.038V186.299H305.404V149.583L281.723 162.269V186.299H261.282V208.509H281.723V275.106C281.723 293.243 292.471 305.657 308.525 305.98C319.418 306.193 325.982 302.945 329.961 300.564L330.216 300.402L336.024 277.648L334.596 278.524Z" fill="white"/>
<path d="M354.599 304.173H378.799V186.184H354.599V304.173Z" fill="white"/>
<path d="M392.895 165.501C370.812 134.227 334.147 115.571 296.843 115.571C259.549 115.571 222.875 134.227 200.835 165.501L199.695 167.108H227.5L227.807 166.777C246.726 147.237 271.436 136.914 296.843 136.914C322.251 136.914 346.944 147.237 365.906 166.777L366.212 167.108H394L392.895 165.501Z" fill="#EE1C25"/>
</svg>
