<svg xmlns="http://www.w3.org/2000/svg" width="43" height="43"><g fill="none" fill-rule="evenodd" class="concur"><g fill="#F0AB00" fill-rule="nonzero" class="concur__group"><path d="M20.5 28.2c-3.6 0-6.6-3-6.6-6.6 0-3.6 2.9-6.6 6.6-6.6 1.8 0 3.5.7 4.6 1.9l3.4-3.4c-2.1-2.1-4.9-3.3-8.1-3.3C14.1 10.2 9 15.3 9 21.6 9 27.9 14.1 33 20.4 33c3.1 0 6-1.3 8.1-3.3l-3.4-3.4c-1.2 1.1-2.8 1.9-4.6 1.9" class="concur__group__path"/><path d="M30.1 18.7c-1.6 0-2.9 1.3-2.9 2.9 0 1.6 1.3 2.9 2.9 2.9 1.6 0 2.9-1.3 2.9-2.9 0-1.6-1.3-2.9-2.9-2.9" class="concur__group__path"/><path d="M0 43h43V0H0v43zm4.789-4.889V4.79H38.11v33.32H4.79z" class="concur__group__shape"/></g></g></svg>