<svg width="512" height="128" viewBox="0 0 512 128" fill="none" xmlns="http://www.w3.org/2000/svg">
<rect width="512" height="128.001" fill="#43B02A"/>
<path d="M458.53 47.6136C459.158 47.6136 460.263 47.7333 460.263 46.932C460.263 46.4098 459.571 46.3192 459.023 46.3192H457.685V47.6136H458.53ZM460.894 50.652H460.042L458.53 48.3243H457.685V50.652H456.975V45.6122H459.168C460.086 45.6122 460.967 45.8587 460.967 46.9465C460.967 47.9363 460.271 48.2989 459.375 48.3243L460.894 50.652ZM462.624 48.1611C462.593 47.1418 462.166 46.1745 461.434 45.4645C460.702 44.7544 459.722 44.3573 458.702 44.3573C457.683 44.3573 456.703 44.7544 455.971 45.4645C455.239 46.1745 454.812 47.1418 454.781 48.1611C454.812 49.1804 455.239 50.1477 455.971 50.8577C456.703 51.5678 457.683 51.9649 458.702 51.9649C459.722 51.9649 460.702 51.5678 461.434 50.8577C462.166 50.1477 462.593 49.1804 462.624 48.1611ZM454.067 48.1611C454.067 45.6013 456.112 43.5527 458.697 43.5527C461.286 43.5527 463.331 45.6013 463.331 48.1611C463.331 50.7245 461.286 52.7622 458.697 52.7622C458.09 52.7685 457.487 52.6539 456.925 52.4253C456.362 52.1966 455.85 51.8584 455.419 51.4303C454.989 51.0022 454.647 50.4927 454.415 49.9315C454.183 49.3702 454.064 48.7685 454.067 48.1611Z" fill="#FEFEFE"/>
<path d="M432.084 79.6987V45.6091H444.361V68.6655H454.752V79.6987H432.084Z" fill="#FEFEFE"/>
<path d="M418.129 45.6162H406.519L394.206 79.7058H406.077L412.331 59.3688L418.582 79.7058H430.449L418.129 45.6162Z" fill="#FEFEFE"/>
<path d="M373.324 56.6058V45.6233H399.263V56.6094H392.613V79.7092H379.84V56.6058H373.324Z" fill="#FEFEFE"/>
<path d="M336.168 46.0146H348.347C354.358 57.6063 358.695 63.3676 358.695 63.3676V46.0146C362.665 46.0146 366.78 46.0618 370.765 46.0618C370.765 54.5316 370.718 66.7469 370.718 79.8105H358.089C356.023 76.3044 352.045 69.3248 348.3 63.6722C348.3 66.4858 348.354 75.746 348.347 79.8105H336.168C336.074 75.2167 336.346 54.4917 336.168 46.0146Z" fill="#FEFEFE"/>
<path d="M333.235 79.7056H310.16V45.6233H333.242V54.7784H322.481V58.125H332.016V66.99H322.553V70.4055H333.235V79.7056Z" fill="#FEFEFE"/>
<path d="M287.583 69.365V56.2795C298.569 55.3622 298.485 70.4346 287.583 69.365ZM303.561 50.7901C299.501 46.8054 293.968 45.6995 286.959 45.4348C286.959 45.4348 277.478 45.6161 275.099 45.6161V79.7057C282.706 79.7057 293.243 80.3873 298.543 78.1865C308.391 74.0785 311.886 58.9626 303.561 50.7901Z" fill="#FEFEFE"/>
<path d="M251.226 45.6162H239.62L227.3 79.7058H239.171L245.425 59.3688L251.676 79.7058H263.547L251.226 45.6162Z" fill="#FEFEFE"/>
<path d="M206.641 56.6058V45.6233H232.584V56.6094H225.938V79.7092H213.153V56.6058H206.641Z" fill="#FEFEFE"/>
<path d="M187.751 79.6987V45.6091H200.039V68.6655H210.419V79.6987H187.751Z" fill="#FEFEFE"/>
<path d="M184.868 79.7056H161.793V45.6233H184.875V54.7784H174.117V58.125H183.65V66.99H174.194V70.4055H184.868V79.7056Z" fill="#FEFEFE"/>
<path d="M139.216 69.365V56.2795C150.202 55.3622 150.115 70.4346 139.216 69.365ZM155.198 50.7901C151.134 46.8054 145.601 45.6995 138.592 45.4348C138.592 45.4348 129.111 45.6161 126.732 45.6161V79.7057C134.336 79.7057 144.876 80.3873 150.173 78.1865C160.032 74.0785 163.52 58.9626 155.198 50.7901Z" fill="#FEFEFE"/>
<path d="M82.479 46.3335L69.9193 68.3964H95.5137L82.7002 45.8694L82.479 46.3335ZM89.4695 34.082L109.705 68.3964L102.337 79.698H61.4024L54.8506 68.7409L69.448 45.5903H82.0077L82.6531 45.5613L76.4385 34.082H89.4695Z" fill="#FEFEFE"/>
</svg>
