<svg width="512" height="512" viewBox="0 0 512 512" fill="none" xmlns="http://www.w3.org/2000/svg">
<rect width="512" height="512" fill="#162E5A"/>
<path d="M377.903 221.091L395.903 250.136H396.449L414.449 221.091H424.403L402.449 256L424.403 290.909H414.449L396.449 262.409H395.903L377.903 290.909H367.949L390.449 256L367.949 221.091H377.903Z" fill="white"/>
<path d="M316.438 290.909V221.091H358.574V228.591H324.892V252.182H356.392V259.682H324.892V283.409H359.119V290.909H316.438Z" fill="white"/>
<path d="M262.438 290.909V221.091H270.892V283.409H303.347V290.909H262.438Z" fill="white"/>
<path d="M206.094 290.909V221.091H247.957V228.591H214.548V252.182H244.821V259.682H214.548V290.909H206.094Z" fill="white"/>
<path d="M136.25 221.091H145.932L165.295 253.682H166.114L185.477 221.091H195.159L169.932 262.136V290.909H161.477V262.136L136.25 221.091Z" fill="white"/>
<path d="M87.3636 290.909H78.5L104.136 221.091H112.864L138.5 290.909H129.636L108.773 232.136H108.227L87.3636 290.909ZM90.6364 263.636H126.364V271.136H90.6364V263.636Z" fill="white"/>
<path d="M30.6875 290.909V221.091H54.2784C59.7557 221.091 64.233 222.08 67.7102 224.057C71.2102 226.011 73.8011 228.659 75.483 232C77.1648 235.341 78.0057 239.068 78.0057 243.182C78.0057 247.295 77.1648 251.034 75.483 254.398C73.8239 257.761 71.2557 260.443 67.7784 262.443C64.3011 264.42 59.8466 265.409 54.4148 265.409H37.5057V257.909H54.142C57.892 257.909 60.9034 257.261 63.1761 255.966C65.4489 254.67 67.0966 252.92 68.1193 250.716C69.1648 248.489 69.6875 245.977 69.6875 243.182C69.6875 240.386 69.1648 237.886 68.1193 235.682C67.0966 233.477 65.4375 231.75 63.142 230.5C60.8466 229.227 57.8011 228.591 54.0057 228.591H39.142V290.909H30.6875Z" fill="white"/>
<path d="M453.699 231.705V212.835H463.261C464.028 212.835 464.864 213.057 465.767 213.5C466.67 213.926 467.437 214.591 468.068 215.494C468.716 216.381 469.04 217.506 469.04 218.869C469.04 220.25 468.707 221.426 468.043 222.398C467.378 223.352 466.568 224.077 465.614 224.571C464.676 225.065 463.79 225.313 462.954 225.313H456.051V222.244H461.676C462.239 222.244 462.844 221.963 463.491 221.401C464.156 220.838 464.489 219.994 464.489 218.869C464.489 217.71 464.156 216.926 463.491 216.517C462.844 216.108 462.273 215.903 461.778 215.903H457.841V231.705H453.699ZM465.102 222.807L469.807 231.705H465.256L460.653 222.807H465.102ZM460.858 242.955C458.028 242.955 455.378 242.426 452.906 241.369C450.435 240.313 448.261 238.847 446.386 236.972C444.511 235.097 443.045 232.923 441.989 230.452C440.932 227.98 440.403 225.33 440.403 222.5C440.403 219.67 440.932 217.02 441.989 214.548C443.045 212.077 444.511 209.903 446.386 208.028C448.261 206.153 450.435 204.688 452.906 203.631C455.378 202.574 458.028 202.045 460.858 202.045C463.687 202.045 466.338 202.574 468.81 203.631C471.281 204.688 473.454 206.153 475.329 208.028C477.204 209.903 478.67 212.077 479.727 214.548C480.784 217.02 481.312 219.67 481.312 222.5C481.312 225.33 480.784 227.98 479.727 230.452C478.67 232.923 477.204 235.097 475.329 236.972C473.454 238.847 471.281 240.313 468.81 241.369C466.338 242.426 463.687 242.955 460.858 242.955ZM460.858 238.045C463.722 238.045 466.329 237.347 468.682 235.949C471.034 234.551 472.909 232.676 474.307 230.324C475.704 227.972 476.403 225.364 476.403 222.5C476.403 219.636 475.704 217.028 474.307 214.676C472.909 212.324 471.034 210.449 468.682 209.051C466.329 207.653 463.722 206.955 460.858 206.955C457.994 206.955 455.386 207.653 453.034 209.051C450.682 210.449 448.807 212.324 447.409 214.676C446.011 217.028 445.312 219.636 445.312 222.5C445.312 225.364 446.011 227.972 447.409 230.324C448.807 232.676 450.682 234.551 453.034 235.949C455.386 237.347 457.994 238.045 460.858 238.045Z" fill="white"/>
</svg>
