<svg width="749" height="106" fill="none" xmlns="http://www.w3.org/2000/svg">
  <path d="M272.071 81.008h1.9v-7.066h3.283v-1.724h-8.292v1.724h3.282v7.066h-.173Zm6.91 0h1.9v-5.86l2.937 3.792h.345c.346-.517 2.591-3.103 2.937-3.62v5.688h1.9V72.39h-1.727l-3.283 4.137-3.282-4.137h-1.727v8.618ZM53.035 38.436v-.173c0-.172.173-.172.345 0 3.628 2.93 8.465 4.654 13.647 4.654 11.92 0 21.593-9.48 21.593-21.2 0-11.72-9.674-21.2-21.593-21.2-11.92 0-21.593 9.48-21.593 21.2 0 2.24.346 4.481 1.037 6.55 0 .172 0 .172-.173.172h-.173L33.342 10.341c-3.627-5.17-8.291-9.134-16.756-8.962C6.567 1.55-.169 9.307.003 18.098c0 3.964 1.9 8.273 4.492 11.892l33.511 47.743c3.628 5.171 9.847 5.171 13.474 0L65.99 57.05 53.036 38.436Zm86.716-9.652c-.863-.173-5.873-.69-8.119-1.034-2.591-.345-4.836-.69-4.836-2.586s2.418-2.413 5.7-2.413c5.355 0 11.228.69 19.347 2.586 5.528 1.206 9.501-1.035 10.71-5.688l3.8-14.823C157.025 1.551 145.624 0 134.223 0c-25.393 0-39.04 11.203-39.04 27.577 0 14.478 8.638 23.44 29.194 26.199.864.172 4.664.517 5.355.689 6.392.69 8.637 1.206 8.465 3.102 0 1.724-1.901 2.413-6.91 2.413-7.083 0-14.51-1.378-21.938-3.447-6.219-1.723-9.847.345-11.574 4.482L92.42 76.527c10.537 4.309 27.12 7.067 38.867 7.067 25.047 0 39.039-8.963 39.039-28.267.173-14.478-8.637-23.958-30.575-26.543Zm84.989 28.094c-8.291 0-13.992-6.032-13.992-14.823 0-8.962 5.701-14.65 13.992-14.65 8.292 0 14.338 5.688 14.338 14.65 0 8.79-6.046 14.823-14.338 14.823Zm10.192-55.5c-9.328 0-18.311 3.448-23.493 11.377l-.345-2.069c-.519-4.653-3.974-7.411-9.847-7.411h-20.729V106h23.32c5.874 0 8.983-3.792 8.983-9.135V75.32c5.355 5.516 14.165 7.412 21.074 7.412 20.557 0 36.103-15.34 36.103-40.677.173-25.853-14.51-40.676-35.066-40.676Z" fill="#3A60FF"/>
  <g clip-path="url(#a)" fill="#303C42">
    <path d="M654.801 43.978c-.228 21.055-14.954 37.576-35.87 40.313-11.083 1.45-21.696.068-31.299-5.842-14.24-8.763-20.433-21.834-19.243-38.32 1.404-19.415 16.156-33.87 35.915-36.59 10.621-1.462 20.787-.038 30.23 5.212 12.87 7.157 20.427 20.388 20.267 35.226v.001Zm-24.194-.38c-.037-.6-.055-1.202-.112-1.8-.71-7.453-4.153-13.178-11.246-15.966-7.267-2.859-14.363-2.096-20.448 3.085-5.448 4.638-7.069 10.848-6.198 17.776 1.776 14.114 15.332 19.843 26.649 15.335 7.073-2.818 11.426-10.036 11.353-18.43h.002ZM748.92 82.286h-24.273V80.68c0-12.85.066-25.7-.049-38.55-.028-3.16-.337-6.39-1.06-9.46-1.48-6.295-5.948-9.383-12.445-9.07-8.606.415-14.733 5.656-16.405 14.207-.422 2.16-.592 4.4-.602 6.604-.056 12.017-.028 24.036-.028 36.053v1.756h-23.565V5.294h22.104l.549 8.894c.438-.399.704-.614.938-.859 7.718-8.068 17.282-11.044 28.223-10.128 5.596.469 10.774 2.15 15.295 5.591 5.772 4.394 9.007 10.352 10.354 17.321.637 3.29.959 6.688.982 10.039.103 14.93.045 29.86.042 44.79 0 .408-.036.816-.06 1.345v-.001ZM509.458 15.465l-11.119 14.67c-3.366-2.708-7.082-4.622-11.106-5.914-5.838-1.874-11.789-2.798-17.917-1.785a10.47 10.47 0 0 0-2.636.822c-2.824 1.305-3.445 4.46-1.143 6.578 1.188 1.095 2.707 2.038 4.243 2.51 4.191 1.288 8.457 2.345 12.719 3.39 5.845 1.434 11.666 2.907 16.996 5.833 11.363 6.24 14.377 20.76 6.503 31.116-4.394 5.778-10.358 9.044-17.259 10.564-14.904 3.28-29.252 1.553-42.869-5.446-2.849-1.465-5.381-3.416-7.639-5.96l11.276-14.25c.212.093.386.137.522.234 8.528 6.011 18.089 8.496 28.426 8.064 2.079-.088 4.183-.725 6.176-1.403 1.625-.551 2.828-1.757 2.969-3.66.145-1.962-.851-3.457-2.489-4.125-3.276-1.338-6.653-2.464-10.047-3.481-6.193-1.858-12.493-3.38-18.627-5.41-4.56-1.51-8.58-4.076-11.693-7.893-5.528-6.775-4.964-18.84.65-25.708 4.558-5.576 10.626-8.561 17.496-9.929 14.491-2.885 28.275-1.02 40.987 6.818 1.98 1.22 3.695 2.872 5.581 4.365ZM383.009 5.54c-1.451 3.763-2.836 7.373-4.23 10.982-8.305 21.478-16.618 42.953-24.892 64.442-.388 1.009-.813 1.406-1.96 1.397-7.365-.063-14.73-.044-22.095-.016-.829.003-1.293-.142-1.633-1.026-9.602-24.935-19.243-49.854-28.875-74.776-.114-.292-.188-.6-.324-1.04h1.464c7.69 0 15.379.026 23.068-.029 1.163-.007 1.648.324 2 1.455 4.965 15.948 9.986 31.878 14.997 47.813.121.384.264.76.682 1.188l16.028-50.39h25.77Zm38.959 76.741H397.62V5.591h24.348v76.69ZM551.251 5.624v76.634H526.86V5.624h24.391Z"/>
  </g>
  <defs>
    <clipPath id="a">
      <path fill="#fff" transform="translate(299 3)" d="M0 0h450v81.854H0z"/>
    </clipPath>
  </defs>
</svg>
