<?xml version="1.0" encoding="UTF-8"?>
<svg id="Layer_1" xmlns="http://www.w3.org/2000/svg" viewBox="0 0 2975.53 541.24">
  <path d="M2352.66,270.96c-1.51,139.22-98.88,248.46-237.18,266.56-73.29,9.59-143.46.45-206.96-38.63-94.16-57.94-135.11-144.37-127.24-253.38,9.28-128.38,106.83-223.96,237.48-241.94,70.23-9.67,137.45-.26,199.89,34.46,85.1,47.32,135.07,134.81,134.01,232.92ZM2192.68,268.44c-.24-3.96-.36-7.94-.74-11.89-4.69-49.29-27.46-87.14-74.36-105.58-48.05-18.9-94.97-13.86-135.21,20.4-36.02,30.67-46.74,71.73-40.98,117.54,11.74,93.33,101.38,131.21,176.21,101.4,46.77-18.63,75.55-66.36,75.07-121.86Z"/>
  <path d="M2975,524.26h-160.5c0-3.61,0-7.11,0-10.61,0-84.97.44-169.94-.32-254.9-.19-20.9-2.23-42.26-7.01-62.56-9.79-41.62-39.33-62.04-82.29-59.97-56.91,2.74-97.42,37.4-108.48,93.94-2.79,14.28-3.91,29.09-3.98,43.67-.37,79.46-.18,158.93-.18,238.39v11.61h-155.82V15.17h146.16c1.18,19.15,2.36,38.18,3.63,58.81,2.89-2.64,4.65-4.06,6.2-5.68,51.03-53.35,114.27-73.03,186.62-66.97,37,3.1,71.24,14.22,101.13,36.97,38.17,29.05,59.56,68.45,68.47,114.53,4.21,21.75,6.34,44.22,6.49,66.38.68,98.72.3,197.44.28,296.16,0,2.7-.24,5.4-.4,8.9Z"/>
  <path d="M1391.61,82.42c-25.15,33.18-49.12,64.81-73.52,97.01-22.26-17.91-46.83-30.57-73.44-39.11-38.6-12.39-77.95-18.5-118.47-11.8-5.96.99-11.95,2.9-17.43,5.43-18.67,8.63-22.78,29.49-7.56,43.5,7.86,7.24,17.9,13.47,28.06,16.59,27.71,8.52,55.92,15.51,84.1,22.42,38.65,9.48,77.14,19.22,112.38,38.57,75.14,41.26,95.07,137.27,43,205.75-29.05,38.2-68.49,59.8-114.12,69.85-98.55,21.69-193.42,10.27-283.46-36.01-18.84-9.69-35.58-22.59-50.51-39.41,24.78-31.32,49.54-62.62,74.56-94.22,1.4.61,2.55.9,3.45,1.54,56.39,39.75,119.61,56.18,187.96,53.32,13.75-.58,27.66-4.79,40.84-9.27,10.74-3.65,18.7-11.62,19.63-24.21.96-12.97-5.63-22.85-16.46-27.27-21.66-8.85-43.99-16.29-66.43-23.02-40.95-12.28-82.61-22.35-123.17-35.77-30.15-9.98-56.73-26.95-77.32-52.19-36.55-44.8-32.82-124.58,4.3-169.99,30.14-36.87,70.26-56.61,115.69-65.65,95.82-19.08,186.96-6.75,271.02,45.08,13.09,8.07,24.43,18.99,36.9,28.86Z"/>
  <path d="M555.49,16.79c-9.59,24.89-18.75,48.76-27.97,72.62-54.91,142.02-109.88,284.02-164.59,426.11-2.57,6.67-5.38,9.3-12.96,9.24-48.7-.42-97.4-.29-146.1-.11-5.48.02-8.55-.94-10.8-6.78C129.58,352.99,65.83,188.22,2.14,23.43c-.75-1.93-1.24-3.97-2.14-6.88h9.68c50.85,0,101.69.17,152.53-.19,7.69-.05,10.9,2.14,13.23,9.62,32.83,105.45,66.03,210.79,99.16,316.15.8,2.54,1.75,5.03,4.51,7.86,35.33-111.06,70.65-222.12,105.98-333.19h170.39Z"/>
  <path d="M813.1,524.23h-161V17.13h161v507.1Z"/>
  <path d="M1667.96,17.35v506.73h-161.28V17.35h161.28Z"/>
</svg>